<?xml version="1.0" encoding="utf-8"?>
<!-- Generator: Adobe Illustrator 23.0.0, SVG Export Plug-In . SVG Version: 6.00 Build 0)  -->
<svg version="1.1" id="图层_1" xmlns="http://www.w3.org/2000/svg" xmlns:xlink="http://www.w3.org/1999/xlink" x="0px" y="0px"
	 viewBox="0 0 200 200" style="enable-background:new 0 0 200 200;" xml:space="preserve">
<style type="text/css">
	.st0{clip-path:url(#SVGID_2_);fill:#333333;}
</style>
<g>
	<g>
		<g>
			<defs>
				<rect id="SVGID_1_" width="200" height="200"/>
			</defs>
			<clipPath id="SVGID_2_">
				<use xlink:href="#SVGID_1_"  style="overflow:visible;"/>
			</clipPath>
			<path class="st0" d="M53.3,155.2l46.7-46.7l46.7,46.7c2.3,2.3,6.2,2.3,8.5,0s2.3-6.2,0-8.5L108.5,100l46.7-46.7
				c2.3-2.3,2.3-6.2,0-8.5s-6.2-2.3-8.5,0L100,91.5L53.3,44.8c-2.3-2.3-6.2-2.3-8.5,0s-2.3,6.2,0,8.5L91.5,100l-46.7,46.7
				c-2.3,2.3-2.3,6.2,0,8.5S51,157.5,53.3,155.2z"/>
		</g>
	</g>
</g>
</svg>
