<?xml version="1.0" encoding="utf-8"?>
<!-- Generator: Adobe Illustrator 23.0.0, SVG Export Plug-In . SVG Version: 6.00 Build 0)  -->
<svg version="1.1" id="图层_1" xmlns="http://www.w3.org/2000/svg" xmlns:xlink="http://www.w3.org/1999/xlink" x="0px" y="0px"
	 viewBox="0 0 200 200" style="enable-background:new 0 0 200 200;" xml:space="preserve">
<style type="text/css">
	.st0{fill:none;}
	.st1{fill:#666666;}
</style>
<g>
	<rect class="st0" width="200" height="200"/>
	<rect class="st0" width="200" height="200"/>
	<g>
		<path class="st1" d="M176.5,47.9H141V34.8c0-9.3-7.5-16.8-16.8-16.8H75.8C66.5,18,59,25.5,59,34.8v13H23.6c-3,0-5.6,2.6-5.6,5.6
			s2.6,5.6,5.6,5.6h152.8c3,0,5.6-2.6,5.6-5.6S179.4,47.9,176.5,47.9z M129.8,47.8H70.2v-13c0-3,2.6-5.6,5.6-5.6h48.4
			c3,0,5.6,2.6,5.6,5.6V47.8z"/>
		<path class="st1" d="M157.4,70.2c-3,0-5.6,2.6-5.6,5.6v84.6c0,5.6-4.5,10.5-10.5,10.5h-83c-5.6,0-10.5-4.5-10.5-10.5V75.8
			c0-3-2.6-5.6-5.6-5.6s-5.6,2.6-5.6,5.6v84.6c0,11.9,9.7,21.6,21.6,21.6h83.5c11.9,0,21.6-9.7,21.6-21.6V75.8
			C163,72.8,160.4,70.2,157.4,70.2z"/>
		<path class="st1" d="M126.8,154V75.8c0-3-2.6-5.6-5.6-5.6s-5.6,2.6-5.6,5.6V154c0,3,2.6,5.6,5.6,5.6S126.8,157,126.8,154z"/>
		<path class="st1" d="M84.4,154V75.8c0-3-2.6-5.6-5.6-5.6s-5.6,2.6-5.6,5.6V154c0,3,2.6,5.6,5.6,5.6S84.4,157,84.4,154z"/>
	</g>
</g>
</svg>
