<?xml version="1.0" encoding="utf-8"?>
<!-- Generator: Adobe Illustrator 23.0.0, SVG Export Plug-In . SVG Version: 6.00 Build 0)  -->
<svg version="1.1" id="图层_1" xmlns="http://www.w3.org/2000/svg" xmlns:xlink="http://www.w3.org/1999/xlink" x="0px" y="0px"
	 viewBox="0 0 200 200" style="enable-background:new 0 0 200 200;" xml:space="preserve">
<style type="text/css">
	.st0{fill:#333333;}
</style>
<g>
	<path class="st0" d="M100,0C44.8,0,0,44.8,0,100s44.8,100,100,100s100-44.8,100-100S155.2,0,100,0z M100,185.4
		c-47.1,0-85.4-38.3-85.4-85.4S52.9,14.6,100,14.6s85.4,38.3,85.4,85.4S147.1,185.4,100,185.4z"/>
	<path class="st0" d="M49.1,92.7c-4,0-7.3,3.3-7.3,7.3l0,0c0,4,3.3,7.3,7.3,7.3h101.6c4,0,7.3-3.3,7.3-7.3l0,0c0-4-3.3-7.3-7.3-7.3
		H49.1z"/>
</g>
</svg>
