<?xml version="1.0" encoding="utf-8"?>
<!-- Generator: Adobe Illustrator 23.0.0, SVG Export Plug-In . SVG Version: 6.00 Build 0)  -->
<svg version="1.1" id="图层_1" xmlns="http://www.w3.org/2000/svg" xmlns:xlink="http://www.w3.org/1999/xlink" x="0px" y="0px"
	 viewBox="0 0 200 200" style="enable-background:new 0 0 200 200;" xml:space="preserve">
<style type="text/css">
	.st0{clip-path:url(#SVGID_2_);fill:#666666;}
	.st1{clip-path:url(#SVGID_4_);fill:#666666;}
</style>
<g>
	<g>
		<g>
			<defs>
				<rect id="SVGID_1_" width="200" height="200"/>
			</defs>
			<clipPath id="SVGID_2_">
				<use xlink:href="#SVGID_1_"  style="overflow:visible;"/>
			</clipPath>
			<path class="st0" d="M158.1,184.2H29.8c-7.7,0-14-6.3-14-14V41.9c0-7.7,6.3-14,14-14H94c3.9,0,7,3.1,7,7s-3.1,7-7,7H29.8v128.3
				h128.3V106c0-3.9,3.1-7,7-7s7,3.1,7,7v64.1C172.1,177.9,165.8,184.2,158.1,184.2L158.1,184.2z"/>
		</g>
	</g>
	<g>
		<g>
			<defs>
				<rect id="SVGID_3_" width="200" height="200"/>
			</defs>
			<clipPath id="SVGID_4_">
				<use xlink:href="#SVGID_3_"  style="overflow:visible;"/>
			</clipPath>
			<path class="st1" d="M75.5,131.5c-1.8,0-3.6-0.7-5-2.1c-2.7-2.7-2.7-7.2,0-9.9l98-98c2.7-2.7,7.2-2.7,9.9,0s2.7,7.2,0,9.9
				l-97.9,98C79.1,130.8,77.3,131.5,75.5,131.5z"/>
		</g>
	</g>
</g>
</svg>
