<?xml version="1.0" encoding="utf-8"?>
<!-- Generator: Adobe Illustrator 23.0.0, SVG Export Plug-In . SVG Version: 6.00 Build 0)  -->
<svg version="1.1" id="图层_1" xmlns="http://www.w3.org/2000/svg" xmlns:xlink="http://www.w3.org/1999/xlink" x="0px" y="0px"
	 viewBox="0 0 200 200" style="enable-background:new 0 0 200 200;" xml:space="preserve">
<style type="text/css">
	.st0{fill:#FFFFFF;}
</style>
<path class="st0" d="M100,0C44.8,0,0,44.8,0,100s44.8,100,100,100s100-44.8,100-100S155.2,0,100,0z M100,160
	c-5.7,0-10.2-4.6-10.2-10.2c0-5.7,4.6-10.2,10.2-10.2c5.7,0,10.2,4.6,10.2,10.2S105.7,160,100,160z M111.1,45.9l-2.1,72.8
	c-0.1,3.8-4,6.8-8.6,6.8h-1.6c-4.6,0-8.5-3-8.6-6.8L88,45.9c-0.2-5.8,4.5-10.7,10.5-10.7h2.1C106.6,35.2,111.3,40.1,111.1,45.9z"/>
</svg>
