<?xml version="1.0" encoding="utf-8"?>
<!-- Generator: Adobe Illustrator 23.0.0, SVG Export Plug-In . SVG Version: 6.00 Build 0)  -->
<svg version="1.1" id="图层_1" xmlns="http://www.w3.org/2000/svg" xmlns:xlink="http://www.w3.org/1999/xlink" x="0px" y="0px"
	 viewBox="0 0 200 200" style="enable-background:new 0 0 200 200;" xml:space="preserve">
<style type="text/css">
	.st0{fill:#F7F7F7;}
	.st1{fill:#999999;}
</style>
<circle class="st0" cx="100" cy="100" r="100"/>
<path class="st1" d="M147.9,93.4l-41.7,41.7c-1.6,1.6-3.7,2.4-5.9,2.4c-0.1,0-0.2-0.1-0.3-0.1c-0.1,0-0.2,0.1-0.3,0.1
	c-2.1,0-4.3-0.8-5.9-2.4L52.1,93.4c-3.3-3.3-3.3-8.5,0-11.8s8.5-3.3,11.8,0l36.1,36.1l36.1-36.1c3.3-3.3,8.5-3.3,11.8,0
	C151.1,84.9,151.1,90.1,147.9,93.4L147.9,93.4z"/>
</svg>
