<?xml version="1.0" encoding="utf-8"?>
<!-- Generator: Adobe Illustrator 23.0.0, SVG Export Plug-In . SVG Version: 6.00 Build 0)  -->
<svg version="1.1" id="图层_1" xmlns="http://www.w3.org/2000/svg" xmlns:xlink="http://www.w3.org/1999/xlink" x="0px" y="0px"
	 viewBox="0 0 200 200" style="enable-background:new 0 0 200 200;" xml:space="preserve">
<style type="text/css">
	.st0{clip-path:url(#SVGID_2_);fill:#999999;}
</style>
<g>
	<defs>
		<rect id="SVGID_1_" width="200" height="200"/>
	</defs>
	<clipPath id="SVGID_2_">
		<use xlink:href="#SVGID_1_"  style="overflow:visible;"/>
	</clipPath>
	<path class="st0" d="M166.7,88.1c9.1-6.8,16.7-14.9,21.6-24.2c1.4-2.7,0.3-6.1-2.3-7.4c-1.3-0.7-2.8-0.9-4.2-0.4
		c-1.4,0.4-2.6,1.4-3.2,2.8c-12.2,23.1-43.7,38.7-78.5,38.7S33.9,82,21.6,58.9c-0.7-1.3-1.8-2.3-3.2-2.7c-1.4-0.4-2.9-0.3-4.2,0.4
		c-2.8,1.3-3.8,4.8-2.3,7.4c4.9,9.3,12.4,17.6,21.6,24.2l-21,26.2c-1.3,1.7-1.6,4-0.7,5.9c0.9,1.9,2.9,3.2,5,3.2
		c1.7,0,3.2-0.7,4.3-2.1l21.8-27.1c9.7,5.4,20.8,9.4,32.8,11.8l-13.9,30.3c-1.3,2.8,0,6.1,2.8,7.3c0.8,0.3,1.6,0.6,2.3,0.6
		c2.1,0,4.1-1.2,5.1-3.2l15-33.3c4.2,0.4,8.6,0.8,13,0.8c3.6,0,7-0.3,10.4-0.6l15.1,33c0.6,1.3,1.7,2.4,3.1,2.9
		c1.4,0.5,2.9,0.4,4.2-0.2c2.8-1.2,4-4.6,2.8-7.3l-13.6-30c12.4-2,24.3-6.2,35.2-12.3l21.7,27.1c1.1,1.3,2.7,2.1,4.3,2.1
		c1.2,0,2.4-0.4,3.4-1.2c2.4-1.9,2.8-5.4,0.9-7.8L166.7,88.1z"/>
</g>
</svg>
