<?xml version="1.0" encoding="utf-8"?>
<!-- Generator: Adobe Illustrator 23.0.0, SVG Export Plug-In . SVG Version: 6.00 Build 0)  -->
<svg version="1.1" id="图层_1" xmlns="http://www.w3.org/2000/svg" xmlns:xlink="http://www.w3.org/1999/xlink" x="0px" y="0px"
	 viewBox="0 0 236 66" style="enable-background:new 0 0 236 66;" xml:space="preserve">
<style type="text/css">
	.st0{fill:url(#路径_1_);}
	.st1{fill:url(#SVGID_1_);}
	.st2{fill:url(#SVGID_2_);}
	.st3{fill:url(#SVGID_3_);}
</style>
<title>绿洲新logo</title>
<desc>Created with Sketch.</desc>
<g id="页面-1">
	<g id="用户逃生" transform="translate(-284.000000, -502.000000)">
		<g id="绿洲新logo" transform="translate(284.000000, 502.000000)">
			<g>
				
					<linearGradient id="路径_1_" gradientUnits="userSpaceOnUse" x1="97.5" y1="46.8333" x2="98.5" y2="46.8333" gradientTransform="matrix(16 0 0 -15 -1512.9996 735.9998)">
					<stop  offset="0" style="stop-color:#910000"/>
					<stop  offset="0.31" style="stop-color:#AB0002"/>
					<stop  offset="1" style="stop-color:#E60012"/>
					<stop  offset="1" style="stop-color:#D71718"/>
				</linearGradient>
				<path id="路径" class="st0" d="M53.3,35.6L53.3,35.6c0,0.2,0,0.2,0,0.3c0,0.2,0,0.3,0,0.5c0,1.9,1.2,3.5,3,4.3
					c1.8,0.7,3.9,0.3,5.3-1c1.4-1.3,1.8-3.3,1.1-5c-0.8-1.7-2.5-2.8-4.5-2.8c-0.3,0-0.6,0-0.9,0.1c-0.1,0-0.2,0-0.3,0
					c-0.2,0-0.4,0-0.5,0c-0.3-0.1-0.5-0.2-0.7-0.4c-0.3-0.3-0.4-0.6-0.4-1v-0.6c0-2.2-1.9-3.9-4.1-3.9c-2.3,0-4.1,1.7-4.1,3.9V30
					l0,0.1c0.1,0.4,0.2,0.8,0.4,1.2l0,0c0.4,0.8,1,1.5,1.8,1.9c0.9,0.5,1.8,0.5,2.3,0.5h0.3c0.4,0,0.8,0.1,1,0.4
					c0,0,0.1,0.1,0.1,0.1c0.1,0.1,0.1,0.2,0.2,0.3c0.1,0.1,0.1,0.3,0.1,0.4l0.1,0.2C53.4,35.3,53.4,35.4,53.3,35.6L53.3,35.6z"/>
				
					<linearGradient id="SVGID_1_" gradientUnits="userSpaceOnUse" x1="89.1429" y1="48.3571" x2="90.1445" y2="48.3571" gradientTransform="matrix(7 0 0 -7 -582 377)">
					<stop  offset="0" style="stop-color:#910000"/>
					<stop  offset="0.31" style="stop-color:#AB0002"/>
					<stop  offset="1" style="stop-color:#E60012"/>
					<stop  offset="1" style="stop-color:#D71718"/>
				</linearGradient>
				<path class="st1" d="M45.5,35c-1.9,0-3.5,1.6-3.5,3.5s1.6,3.5,3.5,3.5s3.5-1.6,3.5-3.5S47.4,35,45.5,35L45.5,35z"/>
				
					<linearGradient id="SVGID_2_" gradientUnits="userSpaceOnUse" x1="102.8571" y1="45.803" x2="103.8571" y2="45.803" gradientTransform="matrix(91 0 0 -66.0003 -9360 3056.012)">
					<stop  offset="0" style="stop-color:#910000"/>
					<stop  offset="0.31" style="stop-color:#AB0002"/>
					<stop  offset="1" style="stop-color:#E60012"/>
					<stop  offset="1" style="stop-color:#D71718"/>
				</linearGradient>
				<path class="st2" d="M74,32h-4c-2.6,0-4.6,2.1-4.6,4.6c0,2.6,2.1,4.6,4.6,4.6h4c4.2,0,7.7,3.4,7.7,7.7s-3.4,7.7-7.7,7.7H61.7
					c-0.2,0-0.5,0-0.7,0.1H28.5c-9.8-0.2-17.7-7.6-17.7-16.6c0-7.7,5.9-14.6,14-16.2l0.5-0.1l0.2-0.5C29.2,14.5,35,10.1,43,10
					c6,0,10.4,2.6,11.8,6.9c0.7,2.2,2.7,3.8,5.1,3.8c0.3,0,0.7,0,1-0.1h0.2l0.1,0c1.4-0.3,2.5-1.2,3.2-2.5c0.7-1.2,0.8-2.6,0.4-3.9
					C62.3,5.5,53.7,0,43,0c-1.6,0-3.1,0.2-4.6,0.6c-9.2,1.7-16.5,7.5-18.8,14.8C8,18.3,0,28.5,0,40.2v0.4c0.1,6.8,3,13.3,7.9,17.9
					c5,4.8,11.7,7.4,18.6,7.4H74c9.4,0,17-7.6,17-17C91,39.6,83.4,32,74,32z"/>
				
					<linearGradient id="SVGID_3_" gradientUnits="userSpaceOnUse" x1="99.6667" y1="46.3333" x2="100.6667" y2="46.3333" gradientTransform="matrix(24.0001 0 0 -24 -2327.0063 1156.0001)">
					<stop  offset="0" style="stop-color:#D71718"/>
					<stop  offset="0" style="stop-color:#E60012"/>
					<stop  offset="0.69" style="stop-color:#AB0002"/>
					<stop  offset="1" style="stop-color:#910000"/>
				</linearGradient>
				<path class="st3" d="M89,44c0-1.1-0.1-2.1-0.4-3.1l0,0c-3-5.4-8.7-8.8-15-8.8h-3.8c-2.4,0-4.5,1.7-4.7,4
					c-0.2,1.3,0.3,2.6,1.1,3.6c0.9,1,2.1,1.5,3.5,1.5h3.8c4,0,7.5,3,7.8,6.9c0.3,3.6-2,7-5.5,8h1.1C83.5,56,89,50.6,89,44L89,44z"/>
				<g id="编组" transform="translate(98.000000, 7.000000)">
					<path id="形状" d="M31.3,5.6H0.2V1.2h31.1V5.6z M0.2,28.3l4.7-12H0.2v-4.4h31.1v4.4H9.9L5.7,27h20c0.2,0,0.3,0,0.4-0.1
						s0.2-0.3,0.1-0.4v-5.1h4.9V28c0,2.1-1.1,3.1-3.2,3.1H0.2V28.3z"/>
					<path d="M35.2,5.5h1.4c0.4,0,0.7-0.2,1-0.7l1.5-4.5h11v3.8h-2.5l0.4,0.8c0.1,0.3,0.5,0.5,0.8,0.5h1.4v3.3H46
						c-0.9,0.1-1.5-0.3-1.8-1.2l-1.5-3.3l-1,3c-0.3,1.1-1.1,1.6-2.4,1.5h-4.2V5.5z M35.2,11.7H40v20.1h-4.9V11.7z M43.1,14.1
						c-0.6,0-1-0.3-1.2-0.8L40.2,9h4.6l0.6,1.4c0.1,0.4,0.3,0.5,0.6,0.5h1.2v3.1H43.1z M58.7,28.3c0.2,2-0.7,2.9-2.8,2.7h-14V15.4
						h16.8V28.3z M53.8,19.4h-7.1v2.2h7.1V19.4z M53.1,27.7c0.6,0.1,0.8-0.2,0.7-0.8v-1.8h-7.1v2.6L53.1,27.7z M60.6,14.1H48.4v-3.8
						h17.2v17.9c0.2,2.5-0.7,3.7-2.8,3.4h-3.8v-3.7h0.8c0.6,0.1,0.8-0.2,0.7-1V14.1z M52.1,5.5c0.6,0,0.9-0.2,1-0.5l1.7-4.6h11V4
						h-2.9l0.4,1c0.1,0.3,0.4,0.6,0.7,0.5h1.8v3.3h-4.3c-1.1,0.1-1.8-0.3-1.9-1.1L58.2,4h-0.1l-1.5,3.8c-0.1,0.7-0.7,1-1.8,1H51V5.5
						H52.1z"/>
					<path d="M71.2,0.1H101v28.3c0.2,2.5-0.9,3.7-3.2,3.4h-5.3v-3.7h2.8c0.8,0,1.2-0.4,1.1-1.2V4.5H75.6v26.9h-4.4V0.1z M78.9,18.7
						L75.7,6.6h3.8l1.4,5.7l1.5-5.6h6.9l1.5,5.1l1.5-5.1H96l-3.3,10.8l2.2,9h-3.6l-0.6-2.6l-1.4,4.5h-3.6l3.3-10.9L86,7.7l-3.5,11.2
						l2.8,9.5h-3.8l-1-4l-1.1,4H76L78.9,18.7z"/>
					<path d="M106.3,15V9.4l5-8.9h5.6l-5.7,10.2h1.2l1.5-2.6h5.4l-6.9,12.2h6v4h-11.9v-2.9l3.9-6.4H106.3z M118.4,31.4h-12.1v-4.1
						h12.1V31.4z M120.9,3.5c0.6,0,0.9-0.2,1.1-0.7l1.1-2.5h4.9l-0.7,1.5h10.6V6l-6,5.9l1.5,1.1c0.5,0.4,0.9,0.5,1.2,0.5h3.3v3.6
						h-6.1c-0.8,0-1.5-0.2-1.9-0.7l-1.4-1.2l-1.2,1.1c-0.6,0.6-1.2,0.9-1.9,0.8h-6.1v-3.4h3.5c0.4,0,0.7-0.2,1.1-0.5l1.1-1l-5-4h7.4
						l0.8,0.5l2.8-2.7h-5.4c-0.3,0.5-0.9,0.8-1.5,0.8h-4.6V3.5H120.9z M119.5,31.3V18.4h18.2v9.7c0.3,2.4-0.7,3.4-3.1,3.1H119.5z
						 M131.9,27.6c0.6,0.1,0.8-0.2,0.7-0.8v-4.5h-7.9v5.3H131.9z"/>
				</g>
				<g transform="translate(133.000000, 46.000000)">
					<path d="M9.5,8.5l1.6,0.4c-0.8,2.7-2.6,4.1-5.4,4.1c-3.5-0.2-5.4-2.3-5.6-6.2c0.2-4.2,2.1-6.4,5.7-6.6c2.3,0.1,4,1.3,5,3.6
						L9.3,4.1C8.6,2.4,7.4,1.4,5.7,1.4c-2.5,0.2-3.9,2-4.1,5.3c0.2,3.2,1.5,4.9,4.1,5.2C7.7,11.8,9,10.6,9.5,8.5z"/>
					<polygon points="12.9,0.3 14.2,0.3 14.2,12.7 12.9,12.7 					"/>
					<path d="M20.1,13c-2.7-0.2-4.1-1.7-4.2-4.5c0.1-3.2,1.5-4.8,4.3-4.9c2.6,0.1,4,1.7,4.1,4.7C24.3,11.3,22.9,12.9,20.1,13z
						 M20.2,4.6c-1.9,0-2.9,1.3-2.9,3.8c0,2.3,1,3.5,2.9,3.6c1.8-0.1,2.7-1.3,2.7-3.7C22.8,6,21.9,4.7,20.2,4.6L20.2,4.6z"/>
					<path d="M32.1,3.7h1.3v9h-1.3v-1.2c-0.7,0.9-1.6,1.4-3,1.5C27,13,26,11.9,26,9.6V3.7h1.3v5.8c0,1.6,0.7,2.4,2.1,2.5
						c1.6-0.2,2.5-1,2.7-2.5V3.7z"/>
					<path d="M42.9,12.7h-1.4v-1.3c-0.5,1-1.4,1.5-2.9,1.5c-2.3-0.1-3.4-1.6-3.5-4.5c0.1-3.1,1.4-4.7,3.8-4.8c1.1,0,1.9,0.6,2.6,1.6
						V0.3h1.4L42.9,12.7z M41.5,8.8V7.4c-0.1-1.7-0.9-2.6-2.3-2.7c-1.8,0-2.7,1.3-2.8,3.7c0,2.3,0.9,3.5,2.6,3.6
						C40.6,11.9,41.5,10.9,41.5,8.8L41.5,8.8z"/>
					<path d="M52.5,6.9v5.8h-1.3V7.1c0-1.7-0.7-2.5-2.1-2.5c-1.6,0.2-2.5,1.1-2.7,2.6v5.5l-1.3,0.1V3.7h1.3v1.4c0.6-1,1.8-1.6,3-1.6
						C51.4,3.5,52.5,4.6,52.5,6.9z"/>
					<path d="M61.2,9.9l1.4,0.4c-0.5,1.8-1.8,2.7-4,2.7c-2.8-0.1-4.2-1.7-4.3-4.6c0.1-3.1,1.5-4.7,4.2-4.8c2.6,0.1,4,1.7,4.1,4.8
						v0.3h-6.9c0.1,2,1,3.1,2.8,3.2C59.9,11.9,60.8,11.2,61.2,9.9z M55.8,7.6h5.4c-0.1-1.8-1-2.8-2.7-2.9
						C56.8,4.9,55.9,5.8,55.8,7.6z"/>
					<path d="M67.6,12l0.2,0.7c-0.4,0.2-0.9,0.3-1.4,0.2c-1.3,0-1.9-0.6-1.9-2V4.8h-1.2V3.7h1.2V1.3L66,0.6v3.1h1.7v1.1H66v6.1
						c0,0.8,0.3,1.2,1,1.1C67.2,12,67.4,12,67.6,12z"/>
				</g>
				<rect id="矩形" x="208" y="52.8" width="15" height="1"/>
				<rect x="111" y="52.8" width="15" height="1"/>
			</g>
		</g>
	</g>
</g>
</svg>
