<?xml version="1.0" encoding="utf-8"?>
<!-- Generator: Adobe Illustrator 23.0.0, SVG Export Plug-In . SVG Version: 6.00 Build 0)  -->
<svg version="1.1" id="图层_1" xmlns="http://www.w3.org/2000/svg" xmlns:xlink="http://www.w3.org/1999/xlink" x="0px" y="0px"
	 viewBox="0 0 200 200" style="enable-background:new 0 0 200 200;" xml:space="preserve">
<style type="text/css">
	.st0{clip-path:url(#SVGID_2_);fill:none;}
	.st1{clip-path:url(#SVGID_2_);}
	.st2{fill:#999999;}
</style>
<g>
	<defs>
		<rect id="SVGID_1_" width="200" height="200"/>
	</defs>
	<clipPath id="SVGID_2_">
		<use xlink:href="#SVGID_1_"  style="overflow:visible;"/>
	</clipPath>
	<rect class="st0" width="200" height="200"/>
	<g class="st1">
		<path class="st2" d="M189.3,172.9H173V74.2c0-8.4-6.8-15.2-15.2-15.2c-0.9,0-1.7,0.1-2.6,0.2L110,66.7V44.2c0-7.2-5-13.4-12-14.9
			L45.4,18.1c-8.2-1.7-16.3,3.5-18,11.7C27.1,30.9,27,32,27,33.1v139.8H10.7c-2.6,0-4.7,2.1-4.7,4.7c0,2.6,2.1,4.7,4.7,4.7l0,0
			h178.6c2.6,0,4.7-2.1,4.7-4.7C194,175,191.9,172.9,189.3,172.9L189.3,172.9z M36.4,172.9V33.1c0-1.8,0.8-3.6,2.2-4.7
			c1.3-1,3-1.5,4.7-1.2l52.5,11.3c2.7,0.5,4.7,2.9,4.7,5.7v128.7H36.4z M110,172.9V76.5l47-7.8c3.1-0.5,6.1,1.6,6.7,4.7
			c0.1,0.3,0.1,0.7,0.1,1v98.7L110,172.9z"/>
		<path class="st2" d="M52.7,46.8c-2.6,0-4.7,2.1-4.7,4.7v0v15.8c0,2.6,2.1,4.7,4.7,4.7c2.6,0,4.7-2.1,4.7-4.7V51.5
			C57.4,48.9,55.3,46.8,52.7,46.8C52.7,46.8,52.7,46.8,52.7,46.8z M52.7,83.6c-2.6,0-4.7,2.1-4.7,4.7l0,0V125c0,2.6,2.1,4.7,4.7,4.7
			c2.6,0,4.7-2.1,4.7-4.7V88.3C57.4,85.7,55.3,83.6,52.7,83.6C52.7,83.6,52.7,83.6,52.7,83.6z M126.3,88.8c-2.6,0-4.7,2.1-4.7,4.7
			V104c0,2.6,2.1,4.7,4.7,4.7c2.6,0,4.7-2.1,4.7-4.7V93.5C131,90.9,128.9,88.8,126.3,88.8L126.3,88.8z M147.3,88.8
			c-2.6,0-4.7,2.1-4.7,4.7V104c0,2.6,2.1,4.7,4.7,4.7s4.7-2.1,4.7-4.7V93.5C152,90.9,149.9,88.8,147.3,88.8L147.3,88.8z
			 M126.3,120.3c-2.6,0-4.7,2.1-4.7,4.7v20.9c0,2.6,2.1,4.7,4.7,4.7c2.6,0,4.7-2.1,4.7-4.7V125C131,122.4,128.9,120.3,126.3,120.3
			L126.3,120.3z M147.3,120.3c-2.6,0-4.7,2.1-4.7,4.7v20.9c0,2.6,2.1,4.7,4.7,4.7s4.7-2.1,4.7-4.7V125
			C152,122.4,149.9,120.3,147.3,120.3L147.3,120.3z"/>
	</g>
</g>
</svg>
