<?xml version="1.0" encoding="utf-8"?>
<!-- Generator: Adobe Illustrator 23.0.0, SVG Export Plug-In . SVG Version: 6.00 Build 0)  -->
<svg version="1.1" id="图层_1" xmlns="http://www.w3.org/2000/svg" xmlns:xlink="http://www.w3.org/1999/xlink" x="0px" y="0px"
	 viewBox="0 0 200 200" style="enable-background:new 0 0 200 200;" xml:space="preserve">
<style type="text/css">
	.st0{clip-path:url(#SVGID_2_);fill:#999999;}
</style>
<g>
	<g>
		<defs>
			<rect id="SVGID_1_" width="200" height="200"/>
		</defs>
		<clipPath id="SVGID_2_">
			<use xlink:href="#SVGID_1_"  style="overflow:visible;"/>
		</clipPath>
		<path class="st0" d="M98.2,18.8c20.8,0,37.7,16.5,37.7,36.9S119,92.5,98.2,92.5S60.5,76,60.5,55.7S77.4,18.8,98.2,18.8
			 M117.9,116.9c27.7,0,50.2,22,50.2,49.1v3.5c0,1.2-0.2,1.4-0.7,1.8c-0.8,0.7-3,2-8.4,3.1c-10.2,2.1-25.2,2.1-41.2,2.1H82.1
			c-16.3,0-31.7,0-41.7-2.1c-5.1-1.1-7.1-2.4-7.9-3c-0.4-0.3-0.7-0.6-0.7-2v-3.5c0-27.1,22.5-49.1,50.3-49.1L117.9,116.9 M98.2,6.8
			c-27.4,0-49.7,21.9-49.7,48.9s22.3,48.9,49.7,48.9s49.7-21.9,49.7-48.9S125.6,6.8,98.2,6.8L98.2,6.8z M117.9,104.9H82.1
			c-34.3,0-62.3,27.4-62.3,61.1v3.5c0,19.1,27.5,19.1,62.3,19.1h35.8c33.4,0,62.2,0,62.2-19.1V166
			C180.1,132.4,152.2,104.9,117.9,104.9L117.9,104.9z"/>
	</g>
	<g>
		<defs>
			<rect id="SVGID_3_" width="200" height="200"/>
		</defs>
		<clipPath id="SVGID_4_">
			<use xlink:href="#SVGID_3_"  style="overflow:visible;"/>
		</clipPath>
	</g>
</g>
</svg>
