<?xml version="1.0" encoding="utf-8"?>
<!-- Generator: Adobe Illustrator 23.0.0, SVG Export Plug-In . SVG Version: 6.00 Build 0)  -->
<svg version="1.1" id="图层_1" xmlns="http://www.w3.org/2000/svg" xmlns:xlink="http://www.w3.org/1999/xlink" x="0px" y="0px"
	 viewBox="0 0 200 200" style="enable-background:new 0 0 200 200;" xml:space="preserve">
<style type="text/css">
	.st0{clip-path:url(#SVGID_2_);fill:#999999;}
	.st1{clip-path:url(#SVGID_4_);fill:#999999;}
</style>
<g>
	<g>
		<defs>
			<rect id="SVGID_1_" width="200" height="200"/>
		</defs>
		<clipPath id="SVGID_2_">
			<use xlink:href="#SVGID_1_"  style="overflow:visible;"/>
		</clipPath>
		<path class="st0" d="M99,161.5c-30.3,0-58.1-18.8-82.8-55.6c-2.8-4.4-2.8-9.7,0-14.1C40.9,55.3,68.7,36.5,99,36.5
			s58.1,18.8,82.8,55.6c2.8,4.4,2.8,9.7,0,14.1C157.1,142.8,129.3,161.5,99,161.5z M99,49c-25.9,0-50.3,16.9-72.5,50
			C49,132.1,73.4,149,99,149s50.3-16.9,72.5-50C149.3,65.9,124.9,49,99,49z"/>
	</g>
	<g>
		<defs>
			<rect id="SVGID_3_" width="200" height="200"/>
		</defs>
		<clipPath id="SVGID_4_">
			<use xlink:href="#SVGID_3_"  style="overflow:visible;"/>
		</clipPath>
		<path class="st1" d="M99,124c-13.8,0-25-11.2-25-25s11.3-25,25-25s25,11.3,25,25S112.8,124,99,124z M99,86.5
			c-6.9,0-12.5,5.6-12.5,12.5s5.6,12.5,12.5,12.5s12.5-5.6,12.5-12.5S105.9,86.5,99,86.5z"/>
	</g>
</g>
</svg>
