<?xml version="1.0" encoding="utf-8"?>
<!-- Generator: Adobe Illustrator 23.0.0, SVG Export Plug-In . SVG Version: 6.00 Build 0)  -->
<svg version="1.1" id="图层_1" xmlns="http://www.w3.org/2000/svg" xmlns:xlink="http://www.w3.org/1999/xlink" x="0px" y="0px"
	 viewBox="0 0 368 108" style="enable-background:new 0 0 368 108;" xml:space="preserve">
<style type="text/css">
	.st0{clip-path:url(#SVGID_2_);fill:#E60012;}
</style>
<g>
	<defs>
		<rect id="SVGID_1_" width="368" height="108"/>
	</defs>
	<clipPath id="SVGID_2_">
		<use xlink:href="#SVGID_1_"  style="overflow:visible;"/>
	</clipPath>
	<path class="st0" d="M87.4,8.4v37.8H33.7V8.4H2.5v91.4h31.2V57.2h53.7v42.6h31.2V8.4H87.4z M130.8,9.8v12.4c12.8-2,29.6-3,40.7-3
		c8.8,0,20.6,0.9,24.8,3.1s5.4,5.2,5.4,8.6c0,2.9-0.8,6.7-3.7,9.2s-6.9,4.2-12.6,5c-5.2,0.8-13.3,1.1-24.9,1.1l-19,0.1v10.5h20.4
		c12.2,0,21.8,0.4,27.4,1.8c6.3,1.5,10,3.2,12.9,5.9c2.9,2.7,3.6,6.4,3.6,9.7c0,4.5-2.8,8.5-8.4,11.2c-5.6,2.6-17.2,3.7-26.2,3.4
		c-14.1-0.4-28.1-1.8-42.1-3.3v12.3c14.7,1.1,37.9,1.9,43.2,1.9c20.5,0,43.4-1.1,54.9-6.9c10.1-5.1,12.3-15.5,12.3-18.7
		c0-3.6-0.5-8-2.8-11.3c-2.4-3.4-5.2-5.5-10.6-7.5s-8.6-3-18.6-4.7c11.1-2.7,14.3-3.9,19.9-7.5s8.4-8.9,8.4-14
		c0-6.3-3.1-11.8-11.8-15.5c-8.7-3.7-32.6-5.3-48.6-5.3C166.2,8.4,146.6,8.6,130.8,9.8 M263.4,19.9c-11.9,8.6-16.3,20.8-16.3,34.2
		c0,13.3,5.1,25.3,17.1,34c12,8.6,39.5,11.7,64.5,11.7c12,0,24.8-0.9,36.7-1.8V84.2c-13,1.8-17.8,2.2-31.2,2.8
		c-14.8,0.6-27.8-1.4-37.4-7.5c-8.7-5.6-12.9-12.2-12.9-25.7c0-9.5,1.8-18.2,9.5-24.1c10-7.7,23.5-9.6,39.4-9.6
		c10,0,18.7,0.8,32.7,3.4v-14c-13.2-0.8-20.8-1.1-38.3-1.1C301.6,8.4,275.3,11.4,263.4,19.9"/>
</g>
</svg>
