<?xml version="1.0" encoding="utf-8"?>
<!-- Generator: Adobe Illustrator 23.0.0, SVG Export Plug-In . SVG Version: 6.00 Build 0)  -->
<svg version="1.1" id="图层_1" xmlns="http://www.w3.org/2000/svg" xmlns:xlink="http://www.w3.org/1999/xlink" x="0px" y="0px"
	 viewBox="0 0 200 200" style="enable-background:new 0 0 200 200;" xml:space="preserve">
<style type="text/css">
	.st0{clip-path:url(#SVGID_2_);}
	.st1{fill:#333333;}
</style>
<g>
	<g>
		<g>
			<g>
				<g>
					<defs>
						<rect id="SVGID_1_" width="200" height="200"/>
					</defs>
					<clipPath id="SVGID_2_">
						<use xlink:href="#SVGID_1_"  style="overflow:visible;"/>
					</clipPath>
					<g class="st0">
						<path class="st1" d="M28,54h144c3.3,0,6-2.7,6-6s-2.7-6-6-6H28c-3.3,0-6,2.7-6,6S24.7,54,28,54z"/>
						<path class="st1" d="M172,94H28c-3.3,0-6,2.7-6,6s2.7,6,6,6h144c3.3,0,6-2.7,6-6S175.3,94,172,94z"/>
						<path class="st1" d="M172,146H28c-3.3,0-6,2.7-6,6s2.7,6,6,6h144c3.3,0,6-2.7,6-6S175.3,146,172,146z"/>
					</g>
				</g>
			</g>
		</g>
	</g>
</g>
</svg>
