<?xml version="1.0" encoding="utf-8"?>
<!-- Generator: Adobe Illustrator 23.0.0, SVG Export Plug-In . SVG Version: 6.00 Build 0)  -->
<svg version="1.1" id="图层_1" xmlns="http://www.w3.org/2000/svg" xmlns:xlink="http://www.w3.org/1999/xlink" x="0px" y="0px"
	 viewBox="0 0 200 200" style="enable-background:new 0 0 200 200;" xml:space="preserve">
<style type="text/css">
	.st0{clip-path:url(#SVGID_2_);}
</style>
<g>
	<defs>
		<rect id="SVGID_1_" width="200" height="200"/>
	</defs>
	<clipPath id="SVGID_2_">
		<use xlink:href="#SVGID_1_"  style="overflow:visible;"/>
	</clipPath>
	<path class="st0" d="M145.8,100c0,10.1,8.2,18.3,18.3,18.3c10.1,0,18.3-8.2,18.3-18.3s-8.2-18.3-18.3-18.3
		C154,81.7,145.8,89.9,145.8,100z"/>
	<path class="st0" d="M17.5,100c0,10.1,8.2,18.3,18.3,18.3c10.1,0,18.3-8.2,18.3-18.3S46,81.7,35.8,81.7
		C25.7,81.7,17.5,89.9,17.5,100z"/>
	<path class="st0" d="M81.7,100c0,10.1,8.2,18.3,18.3,18.3c10.1,0,18.3-8.2,18.3-18.3s-8.2-18.3-18.3-18.3
		C89.9,81.7,81.7,89.9,81.7,100z"/>
</g>
</svg>
