<?xml version="1.0" encoding="utf-8"?>
<!-- Generator: Adobe Illustrator 23.0.0, SVG Export Plug-In . SVG Version: 6.00 Build 0)  -->
<svg version="1.1" id="图层_1" xmlns="http://www.w3.org/2000/svg" xmlns:xlink="http://www.w3.org/1999/xlink" x="0px" y="0px"
	 viewBox="0 0 200 200" style="enable-background:new 0 0 200 200;" xml:space="preserve">
<style type="text/css">
	.st0{clip-path:url(#SVGID_2_);fill:#333333;}
</style>
<g>
	<defs>
		<rect id="SVGID_1_" width="200" height="200"/>
	</defs>
	<clipPath id="SVGID_2_">
		<use xlink:href="#SVGID_1_"  style="overflow:visible;"/>
	</clipPath>
	<path class="st0" d="M95.5,11.8c-1.2-1.1-2.8-1.6-4.3-1.4c-1.3,0.1-3.1,0.7-5.3,3.2L40.7,66.4L11.6,41.2c-4.3-3.8-8.3-1.5-9.8,0.3
		c-1.9,2.2-2.7,6.1,1.3,9.6l32.5,28.1c0.6,0.6,1.3,0.9,1.9,1.2c2.2,1.9,6.1,2.7,9.5-1.4l49-57.2C99.4,17.8,97.5,13.5,95.5,11.8z
		 M80.3,107.3H11.6c-6.2,0-11.3,5.1-11.3,11.3v68.7c0,6.2,5.1,11.3,11.3,11.3h68.7c6.2,0,11.3-5.1,11.3-11.3v-68.7
		C91.6,112.4,86.6,107.3,80.3,107.3L80.3,107.3z M81.5,179.7c0,4.9-3.9,8.8-8.8,8.8H19.3c-4.9,0-8.8-3.9-8.8-8.8v-53.4
		c0-4.9,3.9-8.8,8.8-8.8h53.4c4.8,0,8.8,3.9,8.8,8.8V179.7L81.5,179.7z M188.6,0.8h-68.7c-6.2,0-11.3,5.1-11.3,11.3v68.7
		c0,6.2,5.1,11.3,11.3,11.3h68.7c6.2,0,11.3-5.1,11.3-11.3V12C199.9,5.8,194.8,0.8,188.6,0.8L188.6,0.8z M189.8,73.1
		c0,4.9-3.9,8.8-8.8,8.8h-53.4c-4.8,0-8.8-3.9-8.8-8.8V19.7c0-4.8,3.9-8.8,8.8-8.8H181c4.9,0,8.8,3.9,8.8,8.8V73.1L189.8,73.1z
		 M188.6,107.9h-68.7c-6.2,0-11.3,5.1-11.3,11.3v68.7c0,6.2,5.1,11.3,11.3,11.3h68.7c6.2,0,11.3-5.1,11.3-11.3v-68.7
		C199.9,112.9,194.8,107.9,188.6,107.9L188.6,107.9z M189.8,180.2c0,4.9-3.9,8.8-8.8,8.8h-53.4c-4.8,0-8.8-3.9-8.8-8.8v-53.4
		c0-4.8,3.9-8.8,8.8-8.8H181c4.9,0,8.8,3.9,8.8,8.8V180.2L189.8,180.2z"/>
</g>
</svg>
