<?xml version="1.0" encoding="utf-8"?>
<!-- Generator: Adobe Illustrator 23.0.0, SVG Export Plug-In . SVG Version: 6.00 Build 0)  -->
<svg version="1.1" id="图层_1" xmlns="http://www.w3.org/2000/svg" xmlns:xlink="http://www.w3.org/1999/xlink" x="0px" y="0px"
	 viewBox="0 0 200 200" style="enable-background:new 0 0 200 200;" xml:space="preserve">
<style type="text/css">
	.st0{clip-path:url(#SVGID_2_);fill:none;}
	.st1{clip-path:url(#SVGID_4_);}
	.st2{fill:#333333;}
</style>
<g>
	<g>
		<defs>
			<rect id="SVGID_1_" width="200" height="200"/>
		</defs>
		<clipPath id="SVGID_2_">
			<use xlink:href="#SVGID_1_"  style="overflow:visible;"/>
		</clipPath>
		<rect class="st0" width="200" height="200"/>
	</g>
	<g>
		<defs>
			<rect id="SVGID_3_" width="200" height="200"/>
		</defs>
		<clipPath id="SVGID_4_">
			<use xlink:href="#SVGID_3_"  style="overflow:visible;"/>
		</clipPath>
		<g class="st1">
			<path class="st2" d="M124.8,26.5l-16.2,39.7l-6.7,16.5h17.8h23.8l-65,74.1l10.3-39.3l4-15.1H77.3H52.2l28.9-76h43.7 M133.3,14.6
				H77.1c-2.6,0-4.9,1.6-5.8,4L38,106c-1.6,4.1,1.4,8.5,5.8,8.5h33.5l-16.6,63c-1.2,4.4,2.3,7.9,6.1,7.9c1.6,0,3.3-0.7,4.6-2.2
				l89.5-102.1c3.5-4.1,0.7-10.4-4.7-10.4h-36.5l19.4-47.6C140.8,19,137.7,14.6,133.3,14.6L133.3,14.6z"/>
			<path class="st2" d="M153.9,160.7L32.3,39.1c-2.7-2.7-2.7-7.2,0-9.9l0,0c2.7-2.7,7.2-2.7,9.9,0l121.6,121.6
				c2.7,2.7,2.7,7.2,0,9.9l0,0C161.1,163.5,156.7,163.5,153.9,160.7z"/>
		</g>
	</g>
</g>
</svg>
