<?xml version="1.0" encoding="utf-8"?>
<!-- Generator: Adobe Illustrator 23.0.0, SVG Export Plug-In . SVG Version: 6.00 Build 0)  -->
<svg version="1.1" id="图层_1" xmlns="http://www.w3.org/2000/svg" xmlns:xlink="http://www.w3.org/1999/xlink" x="0px" y="0px"
	 viewBox="0 0 200 200" style="enable-background:new 0 0 200 200;" xml:space="preserve">
<style type="text/css">
	.st0{clip-path:url(#SVGID_2_);}
	.st1{fill:#333333;}
</style>
<g>
	<defs>
		<rect id="SVGID_1_" width="200" height="200"/>
	</defs>
	<clipPath id="SVGID_2_">
		<use xlink:href="#SVGID_1_"  style="overflow:visible;"/>
	</clipPath>
	<g class="st0">
		<path class="st1" d="M193.4,52.7c-2.4-1.2-6.1,0-7.3,3.6l-4.8,13.3C174,51.5,163.1,37,146.1,27.3c-20.6-12.1-43.6-17-66.7-10.9
			c-32.7,7.3-57,31.5-65.5,64.3c-1.2,3.6,1.2,6.1,3.6,7.3c3.6,0,6.1-1.2,7.3-4.8C32.2,53.9,54,32.1,83.1,26
			c20.6-4.8,41.2-1.2,58.2,9.7c14.5,8.5,25.5,21.8,31.5,37.6l-14.5-6.1c-2.4-1.2-6.1,0-7.3,3.6c-1.2,2.4,0,6.1,2.4,7.3l24.2,9.7
			c1.2,1.2,2.4,1.2,3.6,1.2h1.2l0,0c0,0,0,0,1.2,0s2.4-1.2,2.4-2.4l10.9-27.9C198.3,56.4,195.8,53.9,193.4,52.7z"/>
		<path class="st1" d="M182.5,112.1c-2.4-1.2-6.1,1.2-6.1,3.6c-7.3,29.1-29.1,50.9-58.2,57C97.6,177.6,77,174,60.1,163
			c-14.5-8.5-25.5-21.8-31.5-37.6l14.5,6.1c2.4,1.2,6.1,0,7.3-3.6c1.2-2.4,0-6.1-2.4-7.3l-25.5-8.5c-1.2,0-2.4-1.2-3.6-1.2h-1.2l0,0
			c0,0,0,0-1.2,0c-1.2,1.2-2.4,2.4-2.4,3.6L3.1,141.2c-1.2,2.4,0,6.1,3.6,7.3c2.4,1.2,6.1,0,7.3-3.6l4.8-13.3
			c7.3,17,18.2,31.5,35.2,41.2c20.6,12.1,43.6,17,66.7,10.9c32.7-7.3,58.2-32.7,65.5-65.5C187.4,115.8,184.9,113.3,182.5,112.1z"/>
	</g>
</g>
</svg>
