<?xml version="1.0" encoding="utf-8"?>
<!-- Generator: Adobe Illustrator 23.0.0, SVG Export Plug-In . SVG Version: 6.00 Build 0)  -->
<svg version="1.1" id="图层_1" xmlns="http://www.w3.org/2000/svg" xmlns:xlink="http://www.w3.org/1999/xlink" x="0px" y="0px"
	 viewBox="0 0 72 72" style="enable-background:new 0 0 72 72;" xml:space="preserve">
<style type="text/css">
	.st0{fill:url(#SVGID_1_);}
	.st1{fill:#FFFFFF;}
</style>
<linearGradient id="SVGID_1_" gradientUnits="userSpaceOnUse" x1="36" y1="72" x2="36" y2="-9.094947e-13">
	<stop  offset="0" style="stop-color:#E3312F"/>
	<stop  offset="1" style="stop-color:#F56969"/>
</linearGradient>
<circle class="st0" cx="36" cy="36" r="36"/>
<path class="st1" d="M51.8,34.8c-0.1-0.7-0.8-1.2-1.5-1.1c-0.7,0.1-1.2,0.8-1.1,1.5c0.1,0.7,0.2,1.4,0.2,2.1c0,7.4-6,13.4-13.4,13.4
	c-3.5,0-7-1.4-9.5-3.9c-5.2-5.2-5.2-13.7,0-18.9C29,25.4,32.4,24,36,24h0.5l-2.9,2.9c-0.6,0.4-0.8,1.1-0.4,1.8
	c0.4,0.6,1.1,0.8,1.8,0.4c0.2-0.1,0.3-0.3,0.4-0.4l4.8-4.8c0.5-0.5,0.5-1.3,0-1.8l-4.8-4.8c-0.4-0.6-1.1-0.8-1.8-0.4
	s-0.8,1.1-0.4,1.8c0.1,0.2,0.3,0.3,0.4,0.4l2.3,2.4c-8.8,0-15.9,7.2-15.9,16c0,6.4,3.9,12.2,9.8,14.7c8.1,3.5,17.5-0.3,20.9-8.4
	c0,0,0,0,0,0C51.9,40.9,52.3,37.9,51.8,34.8L51.8,34.8z"/>
</svg>
