<?xml version="1.0" encoding="utf-8"?>
<!-- Generator: Adobe Illustrator 23.0.0, SVG Export Plug-In . SVG Version: 6.00 Build 0)  -->
<svg version="1.1" id="图层_1" xmlns="http://www.w3.org/2000/svg" xmlns:xlink="http://www.w3.org/1999/xlink" x="0px" y="0px"
	 viewBox="0 0 72 72" style="enable-background:new 0 0 72 72;" xml:space="preserve">
<style type="text/css">
	.st0{clip-path:url(#SVGID_2_);}
	.st1{fill:url(#SVGID_3_);}
	.st2{fill:#FFFFFF;}
</style>
<g>
	<defs>
		<rect id="SVGID_1_" width="72" height="72"/>
	</defs>
	<clipPath id="SVGID_2_">
		<use xlink:href="#SVGID_1_"  style="overflow:visible;"/>
	</clipPath>
	<g class="st0">
		
			<linearGradient id="SVGID_3_" gradientUnits="userSpaceOnUse" x1="36" y1="2" x2="36" y2="70" gradientTransform="matrix(1 0 0 -1 0 72)">
			<stop  offset="0" style="stop-color:#58C3A5"/>
			<stop  offset="1" style="stop-color:#64D9BF"/>
		</linearGradient>
		<circle class="st1" cx="36" cy="36" r="34"/>
		<g>
			<path class="st2" d="M52.1,27.8c-0.4-0.3-1.1,0-1.2,0.7l-0.9,2.4c-1.2-3.2-3.2-5.8-6.1-7.4c-3.6-2.1-7.6-2.9-11.5-1.9
				c-5.8,1.2-9.8,5.5-11.2,11.1c-0.3,0.7,0.3,1.1,0.7,1.2c0.7,0,1.1-0.3,1.2-0.9c1.2-5,5-8.8,10-9.8c3.6-0.9,7.2-0.3,10,1.7
				c2.6,1.5,4.4,3.8,5.5,6.5L46,30.3c-0.4-0.3-1.1,0-1.2,0.7c-0.3,0.4,0,1.1,0.4,1.2l4.3,1.7c0.3,0.3,0.4,0.3,0.7,0.3h0.3
				c0,0,0,0,0.3,0s0.4-0.3,0.4-0.4l1.9-4.9C53,28.4,52.5,28,52.1,27.8z"/>
			<path class="st2" d="M50.2,38.1c-0.4-0.3-1.1,0.3-1.1,0.7c-1.2,5-5,8.8-10,9.8c-3.6,0.8-7.2,0.3-10-1.7c-2.6-1.5-4.4-3.8-5.5-6.5
				l2.6,1.1c0.4,0.3,1.1,0,1.2-0.7c0.3-0.4,0-1.1-0.4-1.2l-4.4-1.4c-0.3,0-0.4-0.3-0.7-0.3h-0.3c0,0,0,0-0.3,0
				c-0.3,0.3-0.4,0.4-0.4,0.7L19,43.2c-0.3,0.4,0,1.1,0.7,1.2c0.4,0.3,1.1,0,1.2-0.7l0.8-2.4c1.2,2.9,3.2,5.5,6.1,7.2
				c3.6,2.1,7.6,2.9,11.5,1.9c5.8-1.2,10-5.8,11.2-11.2C51,38.7,50.6,38.4,50.2,38.1z"/>
			<path class="st2" d="M36,29.4c-0.3,0-0.6,0.2-0.6,0.6v5.5H30c-0.3,0-0.6,0.2-0.6,0.6c0,0.3,0.2,0.6,0.6,0.6h5.5V42
				c0,0.3,0.2,0.6,0.6,0.6c0.4,0,0.6-0.2,0.6-0.6v-5.5H42c0.3,0,0.6-0.2,0.6-0.6c0-0.3-0.2-0.6-0.6-0.6h-5.5V30
				C36.5,29.6,36.3,29.4,36,29.4z"/>
		</g>
	</g>
</g>
</svg>
