<?xml version="1.0" encoding="utf-8"?>
<!-- Generator: Adobe Illustrator 23.0.0, SVG Export Plug-In . SVG Version: 6.00 Build 0)  -->
<svg version="1.1" id="图层_1" xmlns="http://www.w3.org/2000/svg" xmlns:xlink="http://www.w3.org/1999/xlink" x="0px" y="0px"
	 viewBox="0 0 72 72" style="enable-background:new 0 0 72 72;" xml:space="preserve">
<style type="text/css">
	.st0{fill:url(#SVGID_1_);}
	.st1{fill:#FFFFFF;}
</style>
<linearGradient id="SVGID_1_" gradientUnits="userSpaceOnUse" x1="36" y1="72" x2="36" y2="-9.094947e-13">
	<stop  offset="0" style="stop-color:#F06D3F"/>
	<stop  offset="1" style="stop-color:#F4A381"/>
</linearGradient>
<circle class="st0" cx="36" cy="36" r="36"/>
<g>
	<path class="st1" d="M49.3,20.5H22.7c-1.3,0-2.2,1-2.2,2.2v19.4v1.6v5.5c0,1.3,1,2.2,2.2,2.2h26.5c1.3,0,2.2-1,2.2-2.2v-5.5v-1.6
		V22.7C51.5,21.5,50.5,20.5,49.3,20.5z M49.9,49.3c0,0.3-0.3,0.6-0.6,0.6H22.7c-0.3,0-0.6-0.3-0.6-0.6v-5.5h27.7L49.9,49.3
		L49.9,49.3z M22.1,42.1V22.7c0-0.3,0.3-0.6,0.6-0.6h26.5c0.3,0,0.6,0.3,0.6,0.6v19.4H22.1z"/>
	<path class="st1" d="M25.2,47.6h12.7c0.5,0,0.9-0.4,0.9-0.9s-0.4-0.9-0.9-0.9H25.2c-0.5,0-0.9,0.4-0.9,0.9S24.8,47.6,25.2,47.6z"/>
	<path class="st1" d="M41.8,47.6h4.9c0.6,0,0.9-0.3,0.9-0.9s-0.3-0.9-0.9-0.9h-4.9c-0.6,0-0.9,0.3-0.9,0.9S41.2,47.6,41.8,47.6z"/>
</g>
</svg>
