<?xml version="1.0" encoding="utf-8"?>
<!-- Generator: Adobe Illustrator 23.0.0, SVG Export Plug-In . SVG Version: 6.00 Build 0)  -->
<svg version="1.1" id="图层_1" xmlns="http://www.w3.org/2000/svg" xmlns:xlink="http://www.w3.org/1999/xlink" x="0px" y="0px"
	 viewBox="0 0 72 72" style="enable-background:new 0 0 72 72;" xml:space="preserve">
<style type="text/css">
	.st0{fill:url(#SVGID_1_);}
	.st1{fill:#FFFFFF;}
</style>
<linearGradient id="SVGID_1_" gradientUnits="userSpaceOnUse" x1="36" y1="72" x2="36" y2="-9.094947e-13">
	<stop  offset="0" style="stop-color:#58C3A5"/>
	<stop  offset="1" style="stop-color:#64D9BF"/>
</linearGradient>
<circle class="st0" cx="36" cy="36" r="36"/>
<g>
	<path class="st1" d="M53.1,27.3c-0.4-0.3-1.2,0-1.3,0.7l-0.9,2.5c-1.3-3.4-3.4-6.1-6.5-7.8c-3.8-2.2-8-3.1-12.2-2
		c-6.1,1.3-10.4,5.8-11.9,11.8c-0.3,0.7,0.3,1.2,0.7,1.3c0.7,0,1.2-0.3,1.3-0.9c1.3-5.3,5.3-9.3,10.6-10.4c3.8-0.9,7.6-0.3,10.6,1.8
		c2.7,1.6,4.7,4,5.8,6.9L46.6,30c-0.4-0.3-1.2,0-1.3,0.7c-0.3,0.4,0,1.2,0.4,1.3l4.5,1.8c0.3,0.3,0.4,0.3,0.7,0.3h0.3c0,0,0,0,0.3,0
		s0.4-0.3,0.4-0.4l2-5.2C54,28,53.5,27.5,53.1,27.3z"/>
	<path class="st1" d="M51,38.2c-0.4-0.3-1.2,0.3-1.2,0.7c-1.3,5.3-5.3,9.3-10.6,10.4c-3.8,0.9-7.6,0.3-10.6-1.8
		c-2.7-1.6-4.7-4-5.8-6.9l2.7,1.2c0.4,0.3,1.2,0,1.3-0.7c0.3-0.4,0-1.2-0.4-1.3l-4.7-1.5c-0.3,0-0.4-0.3-0.7-0.3h-0.3c0,0,0,0-0.3,0
		c-0.3,0.3-0.4,0.4-0.4,0.7l-2,4.9c-0.3,0.4,0,1.2,0.7,1.3c0.4,0.3,1.2,0,1.3-0.7l0.9-2.5c1.3,3.1,3.4,5.8,6.5,7.6
		c3.8,2.2,8,3.1,12.2,2c6.1-1.3,10.6-6.1,11.9-11.9C51.9,38.9,51.5,38.5,51,38.2z"/>
	<path class="st1" d="M36,29c-0.3,0-0.6,0.2-0.6,0.6v5.8h-5.8c-0.3,0-0.6,0.2-0.6,0.6c0,0.3,0.2,0.6,0.6,0.6h5.8v5.8
		c0,0.3,0.2,0.6,0.6,0.6c0.4,0,0.6-0.2,0.6-0.6v-5.8h5.8c0.3,0,0.6-0.2,0.6-0.6c0-0.3-0.2-0.6-0.6-0.6h-5.8v-5.8
		C36.5,29.2,36.3,29,36,29z"/>
</g>
</svg>
