<?xml version="1.0" encoding="utf-8"?>
<!-- Generator: Adobe Illustrator 23.0.0, SVG Export Plug-In . SVG Version: 6.00 Build 0)  -->
<svg version="1.1" id="图层_1" xmlns="http://www.w3.org/2000/svg" xmlns:xlink="http://www.w3.org/1999/xlink" x="0px" y="0px"
	 viewBox="0 0 72 72" style="enable-background:new 0 0 72 72;" xml:space="preserve">
<style type="text/css">
	.st0{fill:url(#SVGID_1_);}
	.st1{fill:#FFFFFF;}
</style>
<linearGradient id="SVGID_1_" gradientUnits="userSpaceOnUse" x1="36" y1="72" x2="36" y2="-9.094947e-13">
	<stop  offset="0" style="stop-color:#F06D3F"/>
	<stop  offset="1" style="stop-color:#F4A381"/>
</linearGradient>
<circle class="st0" cx="36" cy="36" r="36"/>
<g>
	<path class="st1" d="M48.2,28.9h-2V28c0-5.6-4.6-10.3-10.3-10.3S25.7,22.3,25.7,28v0.8h-2c-2.1,0-3.7,1.7-3.7,3.7v18
		c0,2.1,1.7,3.7,3.7,3.7h24.5c2.1,0,3.7-1.7,3.7-3.7v-18C52,30.5,50.3,28.9,48.2,28.9z M28,28c0-4.4,3.6-8,8-8s8,3.6,8,8v0.8H28V28z
		 M49.7,50.5L49.7,50.5c0,0.8-0.7,1.4-1.5,1.4H23.7c-0.8,0-1.4-0.6-1.4-1.4v-18c0-0.8,0.6-1.4,1.4-1.4h24.5c0.8,0,1.4,0.7,1.4,1.4
		V50.5z"/>
	<path class="st1" d="M36,37.1c-0.6,0-1.2,0.5-1.2,1.2v4.6c0,0.6,0.5,1.2,1.2,1.2s1.2-0.5,1.2-1.2v-4.6C37.1,37.6,36.6,37.1,36,37.1
		z"/>
</g>
</svg>
