<?xml version="1.0" encoding="utf-8"?>
<!-- Generator: Adobe Illustrator 23.0.0, SVG Export Plug-In . SVG Version: 6.00 Build 0)  -->
<svg version="1.1" id="图层_1" xmlns="http://www.w3.org/2000/svg" xmlns:xlink="http://www.w3.org/1999/xlink" x="0px" y="0px"
	 viewBox="0 0 72 72" style="enable-background:new 0 0 72 72;" xml:space="preserve">
<style type="text/css">
	.st0{clip-path:url(#SVGID_2_);}
	.st1{fill:url(#SVGID_3_);}
	.st2{fill:#FFFFFF;}
</style>
<g>
	<defs>
		<rect id="SVGID_1_" width="72" height="72"/>
	</defs>
	<clipPath id="SVGID_2_">
		<use xlink:href="#SVGID_1_"  style="overflow:visible;"/>
	</clipPath>
	<g class="st0">
		
			<linearGradient id="SVGID_3_" gradientUnits="userSpaceOnUse" x1="36" y1="2" x2="36" y2="70" gradientTransform="matrix(1 0 0 -1 0 72)">
			<stop  offset="0" style="stop-color:#F06D3F"/>
			<stop  offset="1" style="stop-color:#F4A381"/>
		</linearGradient>
		<circle class="st1" cx="36" cy="36" r="34"/>
		<g>
			<path class="st2" d="M47.5,29.3h-1.9v-0.9c0-5.3-4.3-9.7-9.7-9.7s-9.6,4.3-9.6,9.7v0.8h-1.9c-2,0-3.5,1.6-3.5,3.5v17
				c0,2,1.6,3.5,3.5,3.5h23.1c2,0,3.5-1.6,3.5-3.5v-17C51.1,30.8,49.5,29.3,47.5,29.3z M28.4,28.4c0-4.2,3.4-7.6,7.6-7.6
				s7.6,3.4,7.6,7.6v0.8H28.4V28.4z M48.9,49.7L48.9,49.7c0,0.8-0.7,1.3-1.4,1.3H24.4c-0.8,0-1.3-0.6-1.3-1.3v-17
				c0-0.8,0.6-1.3,1.3-1.3h23.1c0.8,0,1.3,0.7,1.3,1.3L48.9,49.7L48.9,49.7z"/>
			<path class="st2" d="M36,37c-0.6,0-1.1,0.5-1.1,1.1v4.3c0,0.6,0.5,1.1,1.1,1.1s1.1-0.5,1.1-1.1v-4.3C37,37.5,36.6,37,36,37z"/>
		</g>
	</g>
</g>
</svg>
