<?xml version="1.0" encoding="utf-8"?>
<!-- Generator: Adobe Illustrator 23.0.0, SVG Export Plug-In . SVG Version: 6.00 Build 0)  -->
<svg version="1.1" id="图层_1" xmlns="http://www.w3.org/2000/svg" xmlns:xlink="http://www.w3.org/1999/xlink" x="0px" y="0px"
	 viewBox="0 0 72 72" style="enable-background:new 0 0 72 72;" xml:space="preserve">
<style type="text/css">
	.st0{clip-path:url(#SVGID_2_);}
	.st1{fill:url(#SVGID_3_);}
	.st2{fill:#FFFFFF;}
</style>
<g>
	<defs>
		<rect id="SVGID_1_" width="72" height="72"/>
	</defs>
	<clipPath id="SVGID_2_">
		<use xlink:href="#SVGID_1_"  style="overflow:visible;"/>
	</clipPath>
	<g class="st0">
		
			<linearGradient id="SVGID_3_" gradientUnits="userSpaceOnUse" x1="36" y1="24" x2="36" y2="-44" gradientTransform="matrix(1 0 0 1 0 46)">
			<stop  offset="0" style="stop-color:#F06D3F"/>
			<stop  offset="1" style="stop-color:#F4A381"/>
		</linearGradient>
		<circle class="st1" cx="36" cy="36" r="34"/>
		<g>
			<path class="st2" d="M48.6,21.4H23.4c-1.2,0-2.1,0.9-2.1,2.1v18.3v1.5v5.2c0,1.2,0.9,2.1,2.1,2.1h25c1.2,0,2.1-0.9,2.1-2.1v-5.2
				v-1.5V23.4C50.6,22.3,49.7,21.4,48.6,21.4z M49.1,48.6c0,0.3-0.3,0.6-0.6,0.6H23.4c-0.3,0-0.6-0.3-0.6-0.6v-5.2H49L49.1,48.6
				L49.1,48.6z M22.9,41.8V23.4c0-0.3,0.3-0.6,0.6-0.6h25c0.3,0,0.6,0.3,0.6,0.6v18.3H22.9z"/>
			<path class="st2" d="M25.8,47h12c0.5,0,0.9-0.4,0.9-0.9s-0.4-0.9-0.9-0.9h-12c-0.5,0-0.9,0.4-0.9,0.9S25.4,47,25.8,47z"/>
			<path class="st2" d="M41.5,47h4.6c0.6,0,0.9-0.3,0.9-0.9s-0.3-0.9-0.9-0.9h-4.6c-0.6,0-0.8,0.3-0.8,0.9S40.9,47,41.5,47z"/>
		</g>
	</g>
</g>
</svg>
