<?xml version="1.0" encoding="utf-8"?>
<!-- Generator: Adobe Illustrator 23.0.0, SVG Export Plug-In . SVG Version: 6.00 Build 0)  -->
<svg version="1.1" id="图层_1" xmlns="http://www.w3.org/2000/svg" xmlns:xlink="http://www.w3.org/1999/xlink" x="0px" y="0px"
	 viewBox="0 0 200 200" style="enable-background:new 0 0 200 200;" xml:space="preserve">
<style type="text/css">
	.st0{clip-path:url(#SVGID_2_);fill:#666666;}
</style>
<g>
	<defs>
		<rect id="SVGID_1_" width="200" height="200"/>
	</defs>
	<clipPath id="SVGID_2_">
		<use xlink:href="#SVGID_1_"  style="overflow:visible;"/>
	</clipPath>
	<path class="st0" d="M87.1,34.7c26.9,0,49.3,20.4,52,47.2c2.6,26.7-15.4,51.1-41.7,56.4S45,128.1,37.1,102.4S42,49.2,66.7,38.8
		C73.2,36.1,80.1,34.7,87.1,34.7 M87.1,22.6c-35.7,0-64.6,28.9-64.6,64.6s28.9,64.6,64.6,64.6s64.6-28.9,64.6-64.6
		S122.8,22.6,87.1,22.6z M171.4,177.5c-1.6,0-3.2-0.6-4.3-1.8L136.4,145c-2.3-2.4-2.3-6.2,0.1-8.5c2.3-2.3,6.1-2.4,8.5-0.1
		l30.7,30.7c1.7,1.7,2.3,4.3,1.3,6.6S173.8,177.5,171.4,177.5z"/>
</g>
</svg>
