<?xml version="1.0" encoding="utf-8"?>
<!-- Generator: Adobe Illustrator 23.0.0, SVG Export Plug-In . SVG Version: 6.00 Build 0)  -->
<svg version="1.1" id="图层_1" xmlns="http://www.w3.org/2000/svg" xmlns:xlink="http://www.w3.org/1999/xlink" x="0px" y="0px"
	 viewBox="0 0 72 72" style="enable-background:new 0 0 72 72;" xml:space="preserve">
<style type="text/css">
	.st0{fill:url(#SVGID_1_);}
	.st1{fill:#FFFFFF;}
</style>
<linearGradient id="SVGID_1_" gradientUnits="userSpaceOnUse" x1="36" y1="-9.094947e-13" x2="36" y2="72" gradientTransform="matrix(1 0 0 -1 0 72)">
	<stop  offset="0" style="stop-color:#4683DC"/>
	<stop  offset="1" style="stop-color:#80B4FF"/>
</linearGradient>
<circle class="st0" cx="36" cy="36" r="36"/>
<path class="st1" d="M21.8,20.5h28.3c0.8,0,1.3,0.6,1.3,1.3l0,0v5.7c0,0.8-0.6,1.3-1.3,1.3l0,0H21.8c-0.8,0-1.3-0.6-1.3-1.3v-5.7
	C20.5,21.1,21,20.5,21.8,20.5z M21.8,31.8h28.3c0.8,0,1.3,0.6,1.3,1.3l0,0v5.7c0,0.8-0.6,1.3-1.3,1.3l0,0H21.8
	c-0.8,0-1.3-0.6-1.3-1.3l0,0v-5.7C20.5,32.4,21,31.8,21.8,31.8z M21.8,43.1h28.3c0.8,0,1.3,0.6,1.3,1.3l0,0v5.7
	c0,0.8-0.6,1.3-1.3,1.3l0,0H21.8c-0.8,0-1.3-0.6-1.3-1.3l0,0v-5.7C20.5,43.6,21,43.1,21.8,43.1L21.8,43.1z M21.8,21.9v5.7h28.3v-5.7
	C50.1,21.9,21.8,21.9,21.8,21.9z M21.8,33.2v5.7h28.3v-5.7H21.8z M21.8,44.5v5.7h28.3v-5.7H21.8z M26.1,37.4c-0.8,0-1.3-0.6-1.3-1.3
	s0.6-1.3,1.3-1.3c0.7,0,1.3,0.6,1.3,1.3S26.9,37.4,26.1,37.4z M26.1,26.1c-0.8,0-1.3-0.6-1.3-1.3c0-0.8,0.6-1.3,1.3-1.3
	c0.7,0,1.3,0.6,1.3,1.3S26.9,26.1,26.1,26.1z"/>
</svg>
