<?xml version="1.0" encoding="utf-8"?>
<!-- Generator: Adobe Illustrator 23.0.0, SVG Export Plug-In . SVG Version: 6.00 Build 0)  -->
<svg version="1.1" id="图层_1" xmlns="http://www.w3.org/2000/svg" xmlns:xlink="http://www.w3.org/1999/xlink" x="0px" y="0px"
	 viewBox="0 0 72 72" style="enable-background:new 0 0 72 72;" xml:space="preserve">
<style type="text/css">
	.st0{clip-path:url(#SVGID_2_);}
	.st1{fill:url(#SVGID_3_);}
	.st2{fill:#FFFFFF;}
</style>
<g>
	<defs>
		<rect id="SVGID_1_" width="72" height="72"/>
	</defs>
	<clipPath id="SVGID_2_">
		<use xlink:href="#SVGID_1_"  style="overflow:visible;"/>
	</clipPath>
	<g class="st0">
		
			<linearGradient id="SVGID_3_" gradientUnits="userSpaceOnUse" x1="36" y1="2" x2="36" y2="70" gradientTransform="matrix(1 0 0 -1 0 72)">
			<stop  offset="0" style="stop-color:#E3312F"/>
			<stop  offset="1" style="stop-color:#F56969"/>
		</linearGradient>
		<circle class="st1" cx="36" cy="36" r="34"/>
		<path class="st2" d="M50.9,34.9c-0.1-0.7-0.8-1.1-1.4-1c-0.7,0.1-1.1,0.8-1,1.4c0.1,0.7,0.2,1.3,0.2,2c0,7-5.7,12.7-12.7,12.7
			c-3.3,0-6.6-1.3-9-3.7c-4.9-4.9-4.9-12.9,0-17.9c2.4-2.4,5.6-3.7,9-3.7h0.5l-2.7,2.7c-0.6,0.4-0.8,1-0.4,1.7
			c0.4,0.6,1,0.8,1.7,0.4c0.2-0.1,0.3-0.3,0.4-0.4l4.5-4.5c0.5-0.5,0.5-1.2,0-1.7l-4.5-4.5c-0.4-0.6-1-0.8-1.7-0.4
			c-0.7,0.4-0.8,1-0.4,1.7c0.1,0.2,0.3,0.3,0.4,0.4l2.2,2.3c-8.3,0-15,6.8-15,15.1c0,6,3.7,11.5,9.3,13.9c7.7,3.3,16.5-0.3,19.7-7.9
			l0,0C51,40.6,51.4,37.8,50.9,34.9L50.9,34.9z"/>
	</g>
</g>
</svg>
