<?xml version="1.0" encoding="utf-8"?>
<!-- Generator: Adobe Illustrator 23.0.0, SVG Export Plug-In . SVG Version: 6.00 Build 0)  -->
<svg version="1.1" id="图层_1" xmlns="http://www.w3.org/2000/svg" xmlns:xlink="http://www.w3.org/1999/xlink" x="0px" y="0px"
	 viewBox="0 0 72 72" style="enable-background:new 0 0 72 72;" xml:space="preserve">
<style type="text/css">
	.st0{clip-path:url(#SVGID_2_);}
	.st1{fill:url(#SVGID_3_);}
	.st2{fill:#FFFFFF;}
</style>
<g>
	<defs>
		<rect id="SVGID_1_" width="72" height="72"/>
	</defs>
	<clipPath id="SVGID_2_">
		<use xlink:href="#SVGID_1_"  style="overflow:visible;"/>
	</clipPath>
	<g class="st0">
		
			<linearGradient id="SVGID_3_" gradientUnits="userSpaceOnUse" x1="36" y1="2" x2="36" y2="70" gradientTransform="matrix(1 0 0 -1 0 72)">
			<stop  offset="0" style="stop-color:#4683DC"/>
			<stop  offset="1" style="stop-color:#80B4FF"/>
		</linearGradient>
		<circle class="st1" cx="36" cy="36" r="34"/>
		<path class="st2" d="M22.6,21.4h26.7c0.8,0,1.2,0.6,1.2,1.2l0,0V28c0,0.8-0.6,1.2-1.2,1.2l0,0H22.6c-0.8,0-1.2-0.6-1.2-1.2v-5.4
			C21.4,21.9,21.8,21.4,22.6,21.4z M22.6,32h26.7c0.8,0,1.2,0.6,1.2,1.2l0,0v5.4c0,0.8-0.6,1.2-1.2,1.2l0,0H22.6
			c-0.8,0-1.2-0.6-1.2-1.2l0,0v-5.4C21.4,32.6,21.8,32,22.6,32z M22.6,42.7h26.7c0.8,0,1.2,0.6,1.2,1.2l0,0v5.4
			c0,0.8-0.6,1.2-1.2,1.2l0,0H22.6c-0.8,0-1.2-0.6-1.2-1.2l0,0v-5.4C21.4,43.2,21.8,42.7,22.6,42.7L22.6,42.7z M22.6,22.7v5.4h26.7
			v-5.4C49.3,22.7,22.6,22.7,22.6,22.7z M22.6,33.4v5.4h26.7v-5.4H22.6z M22.6,44v5.4h26.7V44H22.6z M26.6,37.3
			c-0.8,0-1.2-0.6-1.2-1.2c0-0.7,0.6-1.2,1.2-1.2c0.7,0,1.2,0.6,1.2,1.2C27.9,36.8,27.4,37.3,26.6,37.3z M26.6,26.6
			c-0.8,0-1.2-0.6-1.2-1.2c0-0.8,0.6-1.2,1.2-1.2c0.7,0,1.2,0.6,1.2,1.2S27.4,26.6,26.6,26.6z"/>
	</g>
</g>
</svg>
