<?xml version="1.0" encoding="utf-8"?>
<!-- Generator: Adobe Illustrator 23.0.0, SVG Export Plug-In . SVG Version: 6.00 Build 0)  -->
<svg version="1.1" id="图层_1" xmlns="http://www.w3.org/2000/svg" xmlns:xlink="http://www.w3.org/1999/xlink" x="0px" y="0px"
	 viewBox="0 0 30 30" style="enable-background:new 0 0 30 30;" xml:space="preserve">
<style type="text/css">
	.st0{fill:#617CF0;}
	.st1{fill:#FFFFFF;}
</style>
<path class="st0" d="M24,30H6c-3.3,0-6-2.7-6-6V6c0-3.3,2.7-6,6-6h18c3.3,0,6,2.7,6,6v18C30,27.3,27.3,30,24,30z"/>
<g>
	<path class="st1" d="M21.4,8.6c-3.5-3.5-9.2-3.5-12.7,0s-3.5,9.2,0,12.7s9.2,3.5,12.7,0S24.9,12.2,21.4,8.6z M20.4,20.4
		c-3,3-7.9,3-10.8,0c-3-3-3-7.9,0-10.8c3-3,7.9-3,10.8,0C23.5,12.5,23.5,17.5,20.4,20.4z"/>
	<path class="st1" d="M19.5,15.2h-4.4v-4.8c0-0.3-0.3-0.6-0.6-0.6s-0.6,0.3-0.6,0.6v5c0,0,0,0.5,0.3,0.8c0.2,0.2,0.4,0.3,0.8,0.3
		h4.6c0.3,0,0.6-0.3,0.6-0.6C20,15.5,19.7,15.2,19.5,15.2z"/>
</g>
</svg>
