<?xml version="1.0" encoding="utf-8"?>
<!-- Generator: Adobe Illustrator 23.0.0, SVG Export Plug-In . SVG Version: 6.00 Build 0)  -->
<svg version="1.1" id="图层_1" xmlns="http://www.w3.org/2000/svg" xmlns:xlink="http://www.w3.org/1999/xlink" x="0px" y="0px"
	 viewBox="0 0 30 30" style="enable-background:new 0 0 30 30;" xml:space="preserve">
<style type="text/css">
	.st0{fill:#617CF0;}
	.st1{fill:#FFFFFF;}
</style>
<path class="st0" d="M24,30H6c-3.3,0-6-2.7-6-6V6c0-3.3,2.7-6,6-6h18c3.3,0,6,2.7,6,6v18C30,27.3,27.3,30,24,30z"/>
<path class="st1" d="M6.2,11.7c-0.3,0.3-0.3,0.8,0,1c0.3,0.3,0.8,0.3,1,0c4.3-4.3,11.2-4.3,15.5,0c0.3,0.3,0.8,0.3,1,0
	c0.3-0.3,0.3-0.8,0-1C18.9,6.9,11.1,6.9,6.2,11.7L6.2,11.7z M20.6,14.1c-3.2-3.2-8.3-3.2-11.4,0c-0.3,0.3-0.3,0.8,0,1
	c0.3,0.3,0.8,0.3,1,0c2.6-2.6,6.7-2.6,9.3,0c0.3,0.3,0.8,0.3,1,0C20.9,14.8,20.9,14.4,20.6,14.1L20.6,14.1z M18,16.4
	c-1.7-1.7-4.5-1.7-6.2,0c-0.3,0.3-0.3,0.8,0,1c0.3,0.3,0.8,0.3,1,0c1.1-1.1,3-1.1,4.1,0c0.3,0.3,0.8,0.3,1,0
	C18.2,17.1,18.2,16.7,18,16.4L18,16.4z M16.4,20.3c0-0.9-0.7-1.6-1.6-1.6c-0.9,0-1.6,0.7-1.6,1.6c0,0.9,0.7,1.6,1.6,1.6
	C15.7,21.9,16.4,21.2,16.4,20.3z"/>
</svg>
