<?xml version="1.0" encoding="utf-8"?>
<!-- Generator: Adobe Illustrator 23.0.0, SVG Export Plug-In . SVG Version: 6.00 Build 0)  -->
<svg version="1.1" id="图层_1" xmlns="http://www.w3.org/2000/svg" xmlns:xlink="http://www.w3.org/1999/xlink" x="0px" y="0px"
	 viewBox="0 0 368 158" style="enable-background:new 0 0 368 158;" xml:space="preserve">
<style type="text/css">
	.st0{clip-path:url(#SVGID_2_);}
	.st1{fill:#E60012;}
	.st2{fill:#4C4948;}
</style>
<g>
	<g>
		<defs>
			<rect id="SVGID_1_" width="368" height="158"/>
		</defs>
		<clipPath id="SVGID_2_">
			<use xlink:href="#SVGID_1_"  style="overflow:visible;"/>
		</clipPath>
		<g class="st0">
			<path class="st1" d="M87.4,2.1v37.8H33.7V2.1H2.5v91.4h31.2V50.9h53.7v42.6h31.2V2.1H87.4z M130.8,3.5v12.4c12.8-2,29.6-3,40.7-3
				c8.8,0,20.6,0.9,24.8,3.1s5.4,5.2,5.4,8.6c0,2.9-0.8,6.7-3.7,9.2s-6.9,4.2-12.6,5c-5.2,0.8-13.3,1.1-24.9,1.1l-19,0.1v10.5h20.4
				c12.2,0,21.8,0.4,27.4,1.8c6.3,1.5,10,3.2,12.9,5.9s3.6,6.4,3.6,9.7c0,4.5-2.8,8.5-8.4,11.2c-5.6,2.6-17.2,3.7-26.2,3.4
				c-14.1-0.4-28.1-1.8-42.1-3.3v12.3c14.7,1.1,37.9,1.9,43.2,1.9c20.5,0,43.4-1.1,54.9-6.9c10.1-5.1,12.3-15.5,12.3-18.7
				c0-3.6-0.5-8-2.8-11.3c-2.4-3.4-5.2-5.5-10.6-7.5s-8.6-3-18.6-4.7c11.1-2.7,14.3-3.9,19.9-7.5s8.4-8.9,8.4-14
				c0-6.3-3.1-11.8-11.8-15.5C215.3,3.6,191.4,2,175.4,2C166.2,2.1,146.6,2.4,130.8,3.5 M263.4,13.6c-11.9,8.6-16.3,20.8-16.3,34.2
				c0,13.3,5.1,25.3,17.1,34c12,8.6,39.5,11.7,64.5,11.7c12,0,24.8-0.9,36.7-1.8V77.9c-13,1.8-17.8,2.2-31.2,2.8
				c-14.8,0.6-27.8-1.4-37.4-7.5c-8.7-5.6-12.9-12.2-12.9-25.7c0-9.5,1.8-18.2,9.5-24.1c10-7.7,23.5-9.6,39.4-9.6
				c10,0,18.7,0.8,32.7,3.4v-14c-13.2-0.8-20.8-1.1-38.3-1.1C301.6,2.1,275.3,5.1,263.4,13.6"/>
			<g>
				<path class="st2" d="M3.1,142.8h4.8c0.3-0.3,0.6-0.8,0.9-1.4c0.2-0.3,0.3-0.6,0.4-0.8l2.4,0.5l-1,1.7h8
					c-0.3,3.4-1.5,5.9-3.8,7.6c0.3,0.1,0.7,0.3,1.2,0.5c1,0.5,1.8,0.8,2.4,0.9l-1.4,2c-0.4-0.2-1.1-0.5-2.1-1
					c-0.9-0.4-1.6-0.7-2.1-0.9c-2.4,1.6-5.4,2.8-8.9,3.7c-0.1-0.3-0.4-0.7-0.8-1.3c-0.2-0.3-0.3-0.6-0.4-0.8c3-0.7,5.6-1.6,7.8-2.6
					c-1-0.5-2.7-1.3-5.1-2.4c1.7,0.7,1.4,0.6-0.7-0.3c0.7-1,1.4-2,2.1-3.3H3.1V142.8z M10.9,124.9h2.2v7.1h6.5v2.1h-6.5v2.9l1.2-1.3
					c1.3,0.8,2.9,1.9,4.7,3.3l-1.4,1.7c-0.3-0.2-0.6-0.4-1-0.8c-1.3-1.1-2.4-2-3.4-2.7v3.3H11v-4.6c-1.6,1.9-3.8,3.7-6.8,5.5
					c-0.3-0.5-0.7-1.1-1.3-1.8c3-1.5,5.4-3.3,7.3-5.4H3.5v-2.1H11L10.9,124.9L10.9,124.9z M4.1,127.4l1.6-1.3c1.1,1,2.4,2.2,3.7,3.5
					L7.6,131C6.8,130.2,5.7,129,4.1,127.4z M7.6,147.4c1.6,0.6,3.2,1.3,4.8,2.1c2-1.5,3.1-3,3.4-4.6H9.1c-0.2,0.3-0.4,0.7-0.8,1.2
					C8.1,146.7,7.8,147.1,7.6,147.4z M18.2,126.2l1.6,1.6c-1,1-2.4,2.2-3.9,3.5l-1.6-1.6C15.6,128.6,16.9,127.4,18.2,126.2z
					 M23.7,124.7l2.4,0.3c-0.4,2-0.9,3.9-1.6,5.8H34v2.2h-2c-0.6,6.3-2,11.2-4.3,14.8c1.5,2,3.7,3.8,6.8,5.5
					c-0.8,0.8-1.4,1.5-1.7,2.2c-2.7-1.7-4.9-3.6-6.5-5.6c-1.4,1.7-3.7,3.8-6.9,6.1c-0.4-0.5-0.6-0.7-0.4-0.5c-0.8-1-1.2-1.5-1.3-1.6
					c3.3-2.1,5.7-4.2,7.2-6.3c-1.5-2.4-2.6-5.7-3.3-10.1c-0.4,0.8-0.9,1.6-1.4,2.4c-0.1-0.2-0.4-0.7-1-1.4c-0.3-0.3-0.4-0.6-0.5-0.7
					C21.1,134.2,22.8,129.9,23.7,124.7z M26.3,145.3c1.7-2.7,2.7-6.8,3.3-12.4h-5.9c-0.1,0.3-0.2,0.6-0.4,1
					C23.9,138.8,24.9,142.6,26.3,145.3z"/>
				<path class="st2" d="M54.4,141.4l6.4-3.9H45.5v-2.4h19.2v2.5l-7.7,5v0.8h14v2.4H57v5.6c0.1,2.7-1.4,4.1-4.3,4.1
					c-0.4,0-0.9,0-1.6,0c-1.3,0.1-2.3,0.1-2.9,0c-0.1-0.8-0.2-1.7-0.4-2.7c1.7,0.2,3.2,0.3,4.4,0.3c1.4,0,2.1-0.7,2.1-2.1v-5.1H39.7
					v-2.4h14.6L54.4,141.4L54.4,141.4L54.4,141.4z M52.8,125.4l2.4-1.2c1,1.6,1.9,3.1,2.7,4.4l-1.4,0.7H70v6.4h-2.6v-4.1H43.6v4.1
					H41v-6.4h14.3c-0.3-0.6-0.8-1.5-1.6-2.6C53.3,126.2,53,125.7,52.8,125.4z"/>
				<path class="st2" d="M76.2,140.3c3.7-4.6,6.4-9.8,8.4-15.6l2.7,0.8c-0.9,2.4-1.9,4.8-3.1,7.2v22.6h-2.7v-17.8
					c-1.3,2.2-2.6,4.1-3.8,5.6c-0.3-0.5-0.6-1.2-1-2C76.4,140.8,76.3,140.5,76.2,140.3z M85.3,144.1c2.6-1.2,5.2-2.7,7.7-4.4v-14.4
					h2.6V138c3.4-2.8,6.3-5.8,8.6-9.2l2.4,1.6c-3,3.9-6.6,7.5-11,10.9v8.5c-0.1,1.7,0.8,2.5,2.6,2.4h3.4c1.7,0.1,2.7-0.5,2.9-1.7
					c0.3-1.9,0.5-3.9,0.5-5.9c1,0.3,1.9,0.7,2.9,0.9c-0.3,2.2-0.5,4.1-0.8,5.8c-0.3,2.4-2.1,3.5-5.2,3.4h-4.1
					c-3.3,0.1-4.9-1.4-4.8-4.6V143c-1.5,1.1-3.6,2.4-6.3,3.7C86.2,145.3,85.7,144.6,85.3,144.1z"/>
				<path class="st2" d="M113.2,133.5c2.4-2.5,4.2-5.5,5.6-8.9l2.2,0.7c-0.2,0.3-0.4,0.9-0.8,1.6c-0.3,0.4-0.4,0.7-0.5,0.9h5.9v2
					l-2.4,3.4h4.1v18.7c0.1,2.3-1,3.4-3.3,3.4c-0.8,0-1.7,0-2.7,0c0-0.4,0-0.8-0.1-1.4c-0.1-0.4-0.1-0.7-0.1-0.8
					c0.3,0.1,1.2,0.1,2.6,0.1c1.1,0.1,1.7-0.4,1.6-1.6v-4.8h-2.9v5.1h-2.1v-5.1h-2.7c0,3.4-0.9,6.4-2.6,8.9
					c-0.9-0.7-1.4-1.2-1.7-1.4c1.7-1.9,2.4-5.1,2.2-9.5v-10.5c-0.3,0.3-0.6,0.7-1,1.2c-0.2-0.3-0.5-0.8-0.9-1.6
					C113.3,133.7,113.2,133.6,113.2,133.5z M118.6,129.7c-0.6,1.2-1.4,2.4-2.4,3.4h4.6l2.2-3.4H118.6z M117.6,135v4.1h2.7V135H117.6
					z M117.6,140.9v4.1h2.7v-4.1H117.6z M125.3,135h-2.9v4.1h2.9V135z M122.4,140.9v4.1h2.9v-4.1H122.4z M128.5,126.3h14.3
					c0,1.8-0.1,3.7-0.3,5.6c-0.1,2.6-1.4,3.9-4.1,3.9c-1.3,0-2.4,0-3.3,0c0-0.3-0.1-1-0.4-2.4c0.3,0,0.8,0,1.6,0
					c0.9,0.1,1.5,0.1,1.8,0.1c1.3,0,2-0.6,2.1-1.8c0-0.4,0-1,0.1-1.8c0-0.7,0-1.2,0-1.6h-6c0.2,4.1-1.6,7.1-5.4,9.2
					c-0.1-0.1-0.3-0.3-0.7-0.8c-0.4-0.5-0.7-0.9-0.9-1c3.2-1.5,4.8-3.9,4.6-7.3h-3.5L128.5,126.3L128.5,126.3z M135.7,136.9h2.4v3.4
					h5.6v2.2h-5.6v4.4h6.4v2.2h-6.4v6.4h-2.4v-6.4h-7.5v-2.2h7.5v-4.4h-3.8c-0.2,0.6-0.5,1.5-1,2.6c-0.2,0.3-0.3,0.6-0.4,0.8
					c-0.8-0.4-1.5-0.7-2.1-0.9c1.2-2.1,2.1-4.7,2.7-7.7l2.4,0.4c-0.3,1-0.5,1.8-0.8,2.6h3L135.7,136.9L135.7,136.9z"/>
				<path class="st2" d="M154.6,138.6c0.1,0,0.2,0,0.3,0.1c1,0.5,1.7,0.9,2.2,1.2c-2,5.8-3.5,10.2-4.4,13.1l-2.6-1.2
					C151.8,148,153.3,143.6,154.6,138.6z M152.7,126.7c0.4,0.4,1,1,1.7,1.8c1.7,1.7,2.9,3,3.8,4.1l-2.1,1.7
					c-0.1-0.1-0.2-0.3-0.4-0.5c-2.1-2.4-3.7-4.3-4.8-5.5L152.7,126.7z M167.1,124.8h2.5c0,1.7,0,3.6,0,5.8h8.1v9.9h3.8v2.4H170
					c1.8,4.6,5.5,7.9,11,9.8c-0.1,0.1-0.2,0.2-0.3,0.4c-0.8,1-1.3,1.7-1.6,2.1c-5.8-3-9.5-6.5-10.9-10.7c-1,4.4-4.6,8.2-10.7,11.2
					c-0.9-1.2-1.5-2-1.8-2.4c6.2-2.8,9.7-6.3,10.6-10.5h-8.1v-2.3h8.5c0.3-1,0.4-7.2,0.4-7.7h-7.2v-2.3h7.2
					C167.1,128.4,167.1,126.5,167.1,124.8z M175.2,132.7h-5.6c0,0.6-0.1,3.7-0.1,3.9c0,1.5,0,2.7-0.1,3.8h5.9L175.2,132.7
					L175.2,132.7z"/>
				<path class="st2" d="M187.4,130.1h14.8c-0.4-1.3-1-2.9-1.8-4.7l2.5-0.9c0.9,1.9,1.6,3.5,2.1,4.7l-2.4,0.9h15.3v2.4h-19.2
					c0,0.5,0,1.4-0.1,2.5c0,1,0,1.9-0.1,2.5h15.3c-0.1,1.2-0.2,3-0.3,5.2c-0.2,2.4-0.3,4.3-0.4,5.6c-0.1,4.4-2.3,6.5-6.5,6.3
					c-1.6,0.1-3.4,0.1-5.6,0.1c0-1-0.1-1.9-0.4-2.9c2.1,0.2,4.1,0.3,5.9,0.3c2.5,0.3,3.9-1.1,4.1-4.2c0.1-1.2,0.2-3,0.3-5.5
					c0.1-1.1,0.1-2,0.1-2.6h-12.6c-0.4,6.6-3.5,11.9-9.5,16c-0.5-0.6-1.2-1.4-2-2.2c5.8-3.5,8.7-8.3,8.9-14.5c0.1-1,0.2-2.5,0.3-4.4
					c0.1-0.9,0.1-1.6,0.1-2.1h-8.6v-2.5L187.4,130.1L187.4,130.1z"/>
				<path class="st2" d="M223.7,152.6c5.2-0.9,9.6-2.5,13.1-4.8h-12.4v-2.1h13.9v-2.6h2.4v2.6h14v2.1h-12.3c3.4,2.4,7.6,4,12.7,4.7
					c-0.1,0.3-0.3,0.7-0.7,1.2c-0.3,0.5-0.5,0.9-0.7,1.2c-5.9-1.6-10.3-3.6-13.1-6v6.8h-2.4V149c-3.3,2.4-7.7,4.4-13.1,5.9
					C224.7,154.1,224.2,153.3,223.7,152.6z M229.5,138.4c0.9-1,1.7-1.9,2.5-2.7h-7.5v-2.2h9.3c0.9-1,1.6-2,2.1-3l2.6,0.8
					c-0.6,0.8-1.3,1.5-2,2.2h17.8v2.1h-6.8c-0.8,1.7-2.1,3.1-4.1,4.3c0.9,0.3,2.1,0.6,3.7,1c2.4,0.6,4,1,4.8,1.3l-1,2.1
					c-1.7-0.5-4.3-1.3-7.8-2.4c-1-0.3-1.8-0.5-2.4-0.7c-2.7,1.2-7.5,2.3-14.5,3.1c-0.3-0.8-0.6-1.5-0.9-2.2c5.1-0.5,9-1.2,11.8-2
					C234.7,139.6,232.2,139,229.5,138.4z M237.6,124.9l2.4-0.7c0.4,1.2,0.8,2.4,1.2,3.4h12.3v4.8h-2.4v-2.7h-23.3v2.7h-2.5v-4.8
					h13.3C238.3,126.7,238,125.8,237.6,124.9z M233.1,137.3c1,0.3,2.5,0.7,4.7,1.2c1.1,0.3,2,0.5,2.6,0.7c2-0.8,3.5-2,4.4-3.5h-10.2
					C234.2,136.2,233.6,136.8,233.1,137.3z"/>
				<path class="st2" d="M269.5,125c-0.3,0.3-0.4,0.7-0.5,1.2c0.6,0.7,1.6,1.9,2.9,3.5c1.6,1.9,2.5,3.1,2.7,3.5l-2,1.6
					c-2-2.8-3.6-4.9-4.7-6.4c-1.9,3.8-4,7.2-6.1,10.1c-0.1-0.2-0.3-0.6-0.7-1.2c-0.4-0.5-0.6-0.9-0.8-1c2.5-3.2,4.7-7.1,6.5-11.5
					L269.5,125z M262.2,146.2l1.7-1.4c0.6,0.8,1.8,2.2,3.5,4.3c1-2.1,2.2-4.4,3.4-7.1h-9.3v-2.2h11.8v2.2c-1.3,3-2.8,6-4.4,9
					c1.2,1.3,2,2.2,2.4,2.7l-2.1,1.6C267.1,152.4,264.8,149.4,262.2,146.2z M265.8,133.8l2-1c1.2,2.1,2.1,3.7,2.6,4.7l-2.1,1.2
					C267.6,137.2,266.8,135.6,265.8,133.8z M283.8,147.1c3.6,2.8,6.3,5,8.1,6.7l-1.8,1.7c-2.7-2.4-5.3-4.6-7.7-6.5
					c-1.1,2.2-3.8,4.4-8.1,6.8c-0.1-0.2-0.4-0.5-0.8-1s-0.7-0.9-0.9-1c3.7-1.6,6.1-3.2,7.2-5c1.3-1.7,1.9-4.4,1.8-8.1v-4.4h2.2v4.7
					c0,3.3-0.4,5.8-1.2,7.5L283.8,147.1z M273.7,126.2h18.2v2.2h-7.7l-0.9,4.3h7.1v15.2h-2.2V135h-10.6v13.1h-2.4v-15.3h5.6l0.8-4.3
					h-7.8v-2.3H273.7z"/>
				<path class="st2" d="M319.4,141.8h2.5v2.4h6.8v2.2h-6.8v4.4c0.1,2.8-1.4,4.2-4.4,4.2c-1.2,0.1-2.8,0.1-4.7,0.1
					c0-0.3-0.1-0.7-0.3-1.3c-0.1-0.7-0.2-1.2-0.3-1.4c0.7,0.1,2.2,0.1,4.6,0.1c1.8,0.1,2.7-0.7,2.6-2.2v-3.9h-22.1v-2.2h22.1
					L319.4,141.8L319.4,141.8z M323.6,134.8h-20.1v1.4c-0.1,1.7,0.7,2.4,2.4,2.4h16.5c1.7,0.1,2.7-0.6,3-2c0-0.1,0-0.3,0.1-0.5
					c0.2-1.1,0.3-2,0.5-2.6c1.3,0.5,2.1,0.8,2.5,0.9c-0.1,0.3-0.2,0.7-0.3,1.3c-0.3,1-0.4,1.6-0.5,2c-0.6,2.2-2.3,3.2-5,3.1h-17.4
					c-3,0.1-4.4-1.3-4.3-4.2v-10.5h22.6L323.6,134.8L323.6,134.8z M303.2,148l1.7-1.6c1,0.7,2.3,1.8,4.1,3.3c0.5,0.5,0.9,0.9,1.2,1
					l-2,1.7C306.5,150.9,304.9,149.4,303.2,148z M303.5,128.4v4.2h17.8v-4.2H303.5z"/>
				<path class="st2" d="M361,126.9l2.1,1.6c-2.2,2.4-4.4,4.6-6.8,6.4h9.2v2.2h-12c-1.8,1.2-3.7,2.4-5.6,3.4h12.6v15h-2.7v-1.8H343
					v1.8h-2.4V144c-1.8,0.8-3.7,1.6-5.6,2.4c-0.2-0.6-0.6-1.4-1.2-2.4c5.8-1.9,11-4.2,15.6-6.9h-14.8v-2.2h12V131h-8.8v-2.2h8.9V125
					h2.5v3.9h7.7v2.2h-7.7v3.9h3.4C355.7,132.7,358.5,130,361,126.9z M357.8,142.6h-14.1c-0.1,0-0.1,0-0.1,0.1
					c-0.1,0.1-0.3,0.1-0.5,0.1v3.4h14.7V142.6z M343,148.2v3.7h14.8v-3.7H343z"/>
			</g>
		</g>
	</g>
</g>
</svg>
