<?xml version="1.0" encoding="utf-8"?>
<!-- Generator: Adobe Illustrator 23.0.0, SVG Export Plug-In . SVG Version: 6.00 Build 0)  -->
<svg version="1.1" id="图层_1" xmlns="http://www.w3.org/2000/svg" xmlns:xlink="http://www.w3.org/1999/xlink" x="0px" y="0px"
	 viewBox="0 0 80 80" style="enable-background:new 0 0 80 80;" xml:space="preserve">
<style type="text/css">
	.st0{opacity:0.2;clip-path:url(#SVGID_2_);fill:#999999;enable-background:new    ;}
	.st1{clip-path:url(#SVGID_2_);fill:#999999;}
	.st2{clip-path:url(#SVGID_2_);}
	.st3{fill:#999999;}
</style>
<g>
	<defs>
		<rect id="SVGID_1_" width="80" height="80"/>
	</defs>
	<clipPath id="SVGID_2_">
		<use xlink:href="#SVGID_1_"  style="overflow:visible;"/>
	</clipPath>
	<path class="st0" d="M58.5,73.6h-37c-8.4,0-15.1-6.8-15.1-15.1v-37c0-8.4,6.8-15.1,15.1-15.1h37c8.4,0,15.1,6.8,15.1,15.1v37
		C73.6,66.8,66.8,73.6,58.5,73.6z"/>
	<path class="st1" d="M62,2c8.8,0,16,7.2,16,16v44c0,8.8-7.2,16-16,16H18C9.2,78,2,70.8,2,62V18C2,9.2,9.2,2,18,2H62 M62,0H18
		C8.1,0,0,8.1,0,18v44c0,9.9,8.1,18,18,18h44c9.9,0,18-8.1,18-18V18C80,8.1,71.9,0,62,0L62,0z"/>
	<rect x="39" y="49.5" class="st1" width="2" height="8"/>
	<g class="st2">
		<path class="st3" d="M28.7,42.9v-5.8h1.9v2.3H34v-2.3h1.9v5.7H34v-2.6h-3.4v2.6L28.7,42.9L28.7,42.9z M36.6,42
			c0.9,0.1,1.8,0.2,2.6,0.2c0.6,0,1.3,0,1.6-0.2c0.4-0.2,0.5-0.4,0.5-0.7c0-0.2,0-0.4-0.2-0.6c-0.2-0.2-0.4-0.3-0.8-0.4
			c-0.4-0.1-1-0.1-1.7-0.1h-1.3v-0.7h1.2c0.7,0,1.2,0,1.6-0.1s0.6-0.2,0.8-0.3c0.2-0.2,0.2-0.4,0.2-0.6c0-0.2-0.1-0.4-0.3-0.5
			c-0.3-0.1-1-0.2-1.5-0.2c-0.7,0-1.7,0.1-2.5,0.2v-0.8c1-0.1,2.2-0.1,2.8-0.1c1,0,2.5,0.1,3,0.3s0.7,0.6,0.7,1
			c0,0.3-0.2,0.6-0.5,0.9c-0.3,0.2-0.6,0.3-1.2,0.5c0.6,0.1,0.8,0.2,1.2,0.3c0.3,0.1,0.5,0.3,0.7,0.5c0.1,0.2,0.2,0.5,0.2,0.7
			s-0.1,0.8-0.8,1.2c-0.7,0.4-2.1,0.4-3.4,0.4c-0.3,0-1.8-0.1-2.7-0.1V42L36.6,42L36.6,42z M51.3,42.8c-0.7,0.1-1.5,0.1-2.3,0.1
			c-1.6,0-3.3-0.2-4-0.7c-0.7-0.5-1.1-1.3-1.1-2.1s0.3-1.6,1-2.1c0.7-0.5,2.4-0.7,4-0.7c1.1,0,1.6,0,2.4,0.1v0.9
			c-0.9-0.2-1.4-0.2-2-0.2c-1,0-1.8,0.1-2.5,0.6c-0.5,0.4-0.6,0.9-0.6,1.5c0,0.8,0.3,1.2,0.8,1.6c0.6,0.4,1.4,0.5,2.3,0.5
			c0.8,0,1.1-0.1,1.9-0.2L51.3,42.8L51.3,42.8z"/>
	</g>
</g>
</svg>
