<?xml version="1.0" encoding="utf-8"?>
<!-- Generator: Adobe Illustrator 23.0.0, SVG Export Plug-In . SVG Version: 6.00 Build 0)  -->
<svg version="1.1" id="图层_1" xmlns="http://www.w3.org/2000/svg" xmlns:xlink="http://www.w3.org/1999/xlink" x="0px" y="0px"
	 viewBox="0 0 80 80" style="enable-background:new 0 0 80 80;" xml:space="preserve">
<style type="text/css">
	.st0{clip-path:url(#SVGID_2_);}
	.st1{fill:#999999;}
	.st2{opacity:0.2;enable-background:new    ;}
</style>
<g>
	<defs>
		<rect id="SVGID_1_" width="80" height="80"/>
	</defs>
	<clipPath id="SVGID_2_">
		<use xlink:href="#SVGID_1_"  style="overflow:visible;"/>
	</clipPath>
	<g class="st0">
		<g>
			<path class="st1" d="M76,2c1.1,0,2,0.9,2,2v72c0,1.1-0.9,2-2,2H4c-1.1,0-2-0.9-2-2V4c0-1.1,0.9-2,2-2H76 M76,0H4C1.8,0,0,1.8,0,4
				v72c0,2.2,1.8,4,4,4h72c2.2,0,4-1.8,4-4V4C80,1.8,78.2,0,76,0L76,0z"/>
		</g>
		<g class="st2">
			<path class="st1" d="M70.2,73.6H9.8c-1.9,0-3.4-1.5-3.4-3.4V9.8c0-1.9,1.5-3.4,3.4-3.4h60.5c1.9,0,3.4,1.5,3.4,3.4v60.5
				C73.6,72.1,72.1,73.6,70.2,73.6z"/>
		</g>
		<g>
			<rect x="34" y="56.3" class="st1" width="12" height="6"/>
			<g>
				<path class="st1" d="M28.7,23.5v-5.8h1.9V20H34v-2.3h1.9v5.7H34v-2.6h-3.4v2.6L28.7,23.5L28.7,23.5z M36.6,22.6
					c0.9,0.1,1.8,0.2,2.6,0.2c0.6,0,1.3,0,1.6-0.2c0.4-0.2,0.5-0.4,0.5-0.7c0-0.2,0-0.4-0.2-0.6c-0.2-0.2-0.4-0.3-0.8-0.4
					c-0.4-0.1-1-0.1-1.7-0.1h-1.3v-0.7h1.2c0.7,0,1.2,0,1.6-0.1s0.6-0.2,0.8-0.3c0.2-0.2,0.2-0.4,0.2-0.6c0-0.2-0.1-0.4-0.3-0.5
					c-0.3-0.1-1-0.2-1.5-0.2c-0.7,0-1.7,0.1-2.5,0.2v-0.8c1-0.1,2.2-0.1,2.8-0.1c1,0,2.5,0.1,3,0.3s0.7,0.6,0.7,1
					c0,0.3-0.2,0.6-0.5,0.9c-0.3,0.2-0.6,0.3-1.2,0.5c0.6,0.1,0.8,0.2,1.2,0.3c0.3,0.1,0.5,0.3,0.7,0.5c0.1,0.2,0.2,0.5,0.2,0.7
					s-0.1,0.8-0.8,1.2c-0.7,0.4-2.1,0.4-3.4,0.4c-0.3,0-1.8-0.1-2.7-0.1v-0.8L36.6,22.6L36.6,22.6z M51.3,23.4
					c-0.7,0.1-1.5,0.1-2.3,0.1c-1.6,0-3.3-0.2-4-0.7c-0.7-0.5-1.1-1.3-1.1-2.1s0.3-1.6,1-2.1c0.7-0.5,2.4-0.7,4-0.7
					c1.1,0,1.6,0,2.4,0.1v0.9c-0.9-0.2-1.4-0.2-2-0.2c-1,0-1.8,0.1-2.5,0.6c-0.5,0.4-0.6,0.9-0.6,1.5c0,0.8,0.3,1.2,0.8,1.6
					c0.6,0.4,1.4,0.5,2.3,0.5c0.8,0,1.1-0.1,1.9-0.2L51.3,23.4L51.3,23.4z"/>
			</g>
		</g>
	</g>
</g>
</svg>
