<?xml version="1.0" encoding="utf-8"?>
<!-- Generator: Adobe Illustrator 23.0.0, SVG Export Plug-In . SVG Version: 6.00 Build 0)  -->
<svg version="1.1" id="图层_1" xmlns="http://www.w3.org/2000/svg" xmlns:xlink="http://www.w3.org/1999/xlink" x="0px" y="0px"
	 viewBox="0 0 152 68" style="enable-background:new 0 0 152 68;" xml:space="preserve">
<style type="text/css">
	.st0{clip-path:url(#SVGID_2_);}
	.st1{opacity:0.2;fill:#999999;enable-background:new    ;}
	.st2{fill:#999999;}
</style>
<g>
	<defs>
		<rect id="SVGID_1_" width="152" height="68"/>
	</defs>
	<clipPath id="SVGID_2_">
		<use xlink:href="#SVGID_1_"  style="overflow:visible;"/>
	</clipPath>
	<g class="st0">
		<path class="st1" d="M139.8,61.8H12.2c-1.9,0-3.4-1.5-3.4-3.4V31.1c0-1.9,1.5-3.4,3.4-3.4h127.7c1.9,0,3.4,1.5,3.4,3.4v27.3
			C143.2,60.2,141.7,61.8,139.8,61.8z"/>
		<path class="st2" d="M148,23.8c1.1,0,2,0.9,2,2v38c0,1.1-0.9,2-2,2H4c-1.1,0-2-0.9-2-2v-38c0-1.1,0.9-2,2-2H148 M148,21.8H4
			c-2.2,0-4,1.8-4,4v38c0,2.2,1.8,4,4,4h144c2.2,0,4-1.8,4-4v-38C152,23.5,150.2,21.8,148,21.8L148,21.8z"/>
		<g>
			<circle class="st2" cx="24" cy="44.8" r="4"/>
			<rect x="66" y="40.8" class="st2" width="18" height="8"/>
			<rect x="90" y="40.8" class="st2" width="18" height="8"/>
			<rect x="114" y="40.8" class="st2" width="18" height="8"/>
		</g>
		<g>
			<path class="st2" d="M42.5,22.3h-2v-21c0-0.6,0.4-1,1-1l0,0c0.6,0,1,0.4,1,1V22.3z"/>
			<path class="st2" d="M111.5,22.3h-2v-21c0-0.6,0.4-1,1-1l0,0c0.6,0,1,0.4,1,1V22.3z"/>
		</g>
	</g>
</g>
</svg>
