<?xml version="1.0" encoding="utf-8"?>
<!-- Generator: Adobe Illustrator 23.0.0, SVG Export Plug-In . SVG Version: 6.00 Build 0)  -->
<svg version="1.1" id="图层_1" xmlns="http://www.w3.org/2000/svg" xmlns:xlink="http://www.w3.org/1999/xlink" x="0px" y="0px"
	 viewBox="0 0 200 200" style="enable-background:new 0 0 200 200;" xml:space="preserve">
<style type="text/css">
	.st0{fill:url(#路径_1_);}
	.st1{fill:url(#SVGID_1_);}
	.st2{fill:url(#SVGID_2_);}
	.st3{fill:url(#SVGID_3_);}
</style>
<g>
	<g>
		
			<linearGradient id="路径_1_" gradientUnits="userSpaceOnUse" x1="84.9872" y1="117.6258" x2="86.7667" y2="117.6258" gradientTransform="matrix(16 0 0 -15 -1257.9996 1823.9995)">
			<stop  offset="0" style="stop-color:#910000"/>
			<stop  offset="0.31" style="stop-color:#AB0002"/>
			<stop  offset="1" style="stop-color:#E60012"/>
			<stop  offset="1" style="stop-color:#D71718"/>
		</linearGradient>
		<path id="路径" class="st0" d="M113,63.3v0.2c0,0.1,0,0.2,0,0.3c0,0.3-0.1,0.6-0.1,0.9c0,3.3,2.1,6.3,5.4,7.6s7,0.6,9.5-1.8
			c2.5-2.3,3.2-5.9,1.9-8.9c-1.3-3.1-4.5-5.1-8-5.1c-0.5,0-1.1,0-1.6,0.1c-0.2,0-0.3,0-0.5,0c-0.3,0-0.6,0-0.9,0
			c-0.5-0.1-0.9-0.4-1.2-0.7c-0.5-0.5-0.7-1.1-0.8-1.8v-1c0-3.8-3.3-6.9-7.4-6.9s-7.4,3.1-7.4,6.9v0.2l0,0.2
			c0.2,0.7,0.4,1.5,0.6,2.2l0,0c0.6,1.4,1.8,2.7,3.2,3.4c1.5,0.9,3.2,0.9,4.2,0.9h0.5c0.7,0,1.4,0.3,1.9,0.7
			c0.1,0.1,0.1,0.1,0.1,0.2c0.1,0.2,0.2,0.3,0.4,0.5c0.1,0.2,0.2,0.5,0.2,0.7l0.1,0.4c0,0.2,0,0.4-0.1,0.6L113,63.3z"/>
		
			<linearGradient id="SVGID_1_" gradientUnits="userSpaceOnUse" x1="81.8425" y1="121.7842" x2="83.625" y2="121.7842" gradientTransform="matrix(7 0 0 -7 -480 921)">
			<stop  offset="0" style="stop-color:#910000"/>
			<stop  offset="0.31" style="stop-color:#AB0002"/>
			<stop  offset="1" style="stop-color:#E60012"/>
			<stop  offset="1" style="stop-color:#D71718"/>
		</linearGradient>
		<path class="st1" d="M99.1,62.3c-3.4,0-6.2,2.8-6.2,6.2c0,3.4,2.8,6.2,6.2,6.2s6.2-2.8,6.2-6.2C105.4,65.1,102.6,62.3,99.1,62.3
			L99.1,62.3z"/>
		
			<linearGradient id="SVGID_2_" gradientUnits="userSpaceOnUse" x1="86.2435" y1="114.4436" x2="88.023" y2="114.4436" gradientTransform="matrix(91 0 0 -66.0003 -7830 7612.0298)">
			<stop  offset="0" style="stop-color:#910000"/>
			<stop  offset="0.31" style="stop-color:#AB0002"/>
			<stop  offset="1" style="stop-color:#E60012"/>
			<stop  offset="1" style="stop-color:#D71718"/>
		</linearGradient>
		<path class="st2" d="M149.8,57h-7.1c-4.6,0-8.2,3.7-8.2,8.2s3.7,8.2,8.2,8.2h7.1c7.6,0,13.7,6.1,13.7,13.7
			c0,7.6-6.1,13.7-13.7,13.7h-21.9c-0.4,0-0.8,0-1.3,0.1H68.8c-17.4-0.3-31.5-13.6-31.5-29.6c0-13.8,10.5-25.9,25-28.9l0.9-0.2
			l0.4-0.9C70.1,25.9,80.5,18,94.7,17.8c10.7,0,18.6,4.6,21,12.3c1.2,4,4.8,6.7,9,6.7c0.6,0,1.2-0.1,1.8-0.2h0.4l0.2-0.1
			c2.4-0.6,4.5-2.2,5.8-4.4c1.2-2.1,1.5-4.6,0.8-7C129,9.9,113.7,0,94.7,0c-2.8,0-5.5,0.4-8.3,1C70,4.1,57,14.3,53,27.3
			c-20.5,5.4-34.8,23.4-34.8,44.3v0.8c0.2,12.1,5.3,23.6,14.1,31.9c8.9,8.5,20.8,13.2,33.1,13.2h84.5c16.7,0,30.3-13.6,30.3-30.3
			C180.1,70.5,166.5,57,149.8,57z"/>
		
			<linearGradient id="SVGID_3_" gradientUnits="userSpaceOnUse" x1="86.2428" y1="115.7376" x2="88.0223" y2="115.7376" gradientTransform="matrix(24.0001 0 0 -24 -1936.0054 2856.0002)">
			<stop  offset="0" style="stop-color:#D71718"/>
			<stop  offset="0" style="stop-color:#E60012"/>
			<stop  offset="0.69" style="stop-color:#AB0002"/>
			<stop  offset="1" style="stop-color:#910000"/>
		</linearGradient>
		<path class="st3" d="M176.5,78.2c0-1.9-0.2-3.7-0.7-5.5l0,0c-5.3-9.7-15.5-15.7-26.7-15.7h-6.8c-4.2,0-7.9,3-8.4,7.2
			c-0.3,2.3,0.5,4.6,2,6.3c1.6,1.7,3.8,2.7,6.2,2.7h6.8c7.1,0,13.3,5.3,13.9,12.3c0.6,6.5-3.6,12.4-9.9,14.2h2
			C166.8,99.6,176.5,90,176.5,78.2L176.5,78.2z"/>
	</g>
	<g id="编组" transform="translate(98.000000, 7.000000)">
		<path id="形状" d="M-48,131.6h-41.2v-5.8H-48V131.6z M-89.2,161.6l6.3-15.9h-6.3v-5.8H-48v5.8h-28.3l-5.5,14.3h26.5
			c0.2,0,0.4,0,0.6-0.2c0.1-0.1,0.2-0.3,0.2-0.5v-6.7h6.4v8.7c0,2.8-1.4,4.2-4.2,4.2h-36.8V161.6z"/>
		<path d="M-42.8,131.4h1.8c0.5,0,0.9-0.3,1.3-0.9l2-6h14.5v5.1h-3.3l0.5,1.1c0.2,0.4,0.6,0.7,1.1,0.7h1.8v4.3h-5.5
			c-1.2,0.1-2-0.4-2.4-1.6l-2-4.3l-1.3,4c-0.4,1.4-1.4,2.1-3.1,2h-5.5V131.4z M-42.8,139.7h6.4v26.6h-6.4V139.7z M-32.3,142.8
			c-0.7,0-1.3-0.4-1.7-1.1l-2.2-5.6h6.1l0.7,1.8c0.1,0.5,0.4,0.7,0.7,0.7h1.7v4.2H-32.3z M-11.7,161.6c0.2,2.6-1,3.9-3.7,3.6H-34
			v-20.6h22.3V161.6z M-18.2,149.8h-9.4v2.9h9.4V149.8z M-19.1,160.9c0.7,0.1,1-0.2,0.9-1.1v-2.4h-9.4v3.4L-19.1,160.9z M-9.1,142.8
			h-16.2v-5.1h22.8v23.7c0.2,3.4-1,4.9-3.7,4.5h-5v-4.9h1.1c0.7,0.1,1-0.3,0.9-1.3V142.8z M-20.4,131.4c0.7,0,1.2-0.2,1.3-0.7
			l2.2-6.1h14.5v4.9h-3.9l0.6,1.3c0.1,0.4,0.5,0.8,0.9,0.7h2.4v4.3H-8c-1.5,0.1-2.3-0.4-2.6-1.4l-1.7-4.9h-0.2l-2,5.1
			c-0.1,1-0.9,1.4-2.4,1.3h-5v-4.3H-20.4z"/>
		<path d="M4.8,124.3h39.6v37.4c0.2,3.4-1.2,4.9-4.2,4.5h-7v-4.9h3.7c1.1,0,1.6-0.5,1.5-1.6v-29.7H10.7v35.6H4.8V124.3z M15.1,148.9
			l-4.2-16.1h5l1.8,7.6l2-7.4h9.2l2,6.7l2-6.7h4.8l-4.4,14.3l2.9,11.9h-4.8l-0.7-3.4l-1.8,6h-4.8l4.4-14.5l-4-13l-4.6,14.8l3.7,12.7
			h-5l-1.3-5.2l-1.5,5.2h-4.6L15.1,148.9z"/>
		<path d="M51.4,144.1v-7.4l6.6-11.8h7.4l-7.6,13.6h1.7l2-3.4h7.2l-9.2,16.1h7.9v5.2H51.6v-3.8l5.2-8.5H51.4z M67.4,165.8h-16v-5.4
			h16V165.8z M70.7,128.9c0.7,0,1.2-0.3,1.5-0.9l1.5-3.3h6.4l-0.9,2h14v5.4l-7.9,7.8l2,1.4c0.6,0.5,1.2,0.7,1.7,0.7h4.4v4.7h-8.1
			c-1.1,0-2-0.3-2.6-0.9l-1.8-1.6l-1.7,1.4c-0.7,0.8-1.6,1.2-2.6,1.1h-8.1v-4.5h4.6c0.5,0,1-0.2,1.5-0.7l1.5-1.3l-6.6-5.2h9.8
			l1.1,0.7l3.7-3.6h-7.2c-0.4,0.7-1.2,1.1-2,1.1h-6.1v-4.3H70.7z M68.9,165.6v-17H93v12.8c0.4,3.1-1,4.5-4,4.2H68.9z M85.3,160.7
			c0.7,0.1,1-0.2,0.9-1.1v-6H75.7v7.1H85.3z"/>
	</g>
	<g transform="translate(133.000000, 46.000000)">
		<path d="M-65.5,148.1l2.1,0.5c-1,3.6-3.4,5.4-7.1,5.4c-4.7-0.3-7.2-3-7.4-8.2c0.2-5.6,2.8-8.5,7.6-8.8c3.1,0.1,5.3,1.7,6.6,4.8
			l-2,0.5c-1-2.4-2.6-3.6-4.7-3.6c-3.3,0.3-5.2,2.7-5.5,7c0.2,4.2,2,6.5,5.4,6.8C-67.9,152.4-66.2,150.9-65.5,148.1z"/>
		<polygon points="-61,137.3 -59.3,137.3 -59.3,153.7 -61,153.7 		"/>
		<path d="M-51.4,154c-3.5-0.2-5.4-2.2-5.6-6c0.1-4.2,2-6.4,5.7-6.5c3.4,0.2,5.2,2.3,5.4,6.3C-45.9,151.9-47.8,153.9-51.4,154z
			 M-51.3,142.9c-2.5,0.1-3.8,1.7-3.8,5c0,3.1,1.3,4.7,3.8,4.8c2.3-0.1,3.5-1.7,3.6-4.9C-47.9,144.8-49.1,143.1-51.3,142.9
			L-51.3,142.9z"/>
		<path d="M-35.6,141.7h1.7v11.9h-1.7V152c-0.9,1.3-2.2,1.9-3.9,2c-2.8,0.1-4.1-1.4-4.1-4.4v-7.8h1.7v7.7c0.1,2.1,1,3.2,2.8,3.3
			c2.1-0.2,3.3-1.3,3.5-3.4V141.7z"/>
		<path d="M-21.3,153.7H-23v-1.7c-0.6,1.4-1.9,2-3.8,2c-3-0.2-4.6-2.2-4.7-6c0.2-4.1,1.9-6.3,5.1-6.4c1.4,0.1,2.6,0.7,3.4,2.1v-6.3
			h1.8L-21.3,153.7z M-23,148.5v-1.9c-0.2-2.2-1.2-3.5-3.1-3.6c-2.4,0.1-3.6,1.7-3.7,4.9c0.1,3.1,1.2,4.7,3.4,4.8
			C-24.2,152.6-23.1,151.2-23,148.5L-23,148.5z"/>
		<path d="M-8.6,146v7.7h-1.7v-7.4c-0.1-2.2-1-3.3-2.8-3.4c-2.1,0.3-3.3,1.4-3.5,3.5v7.3l-1.7,0.1v-12h1.7v1.8
			c0.9-1.3,2.3-2.2,3.9-2.2C-9.9,141.4-8.6,142.9-8.6,146z"/>
		<path d="M3,150l1.8,0.5c-0.7,2.4-2.4,3.6-5.2,3.5c-3.7-0.2-5.5-2.2-5.6-6.1c0.2-4.1,2-6.3,5.6-6.4c3.5,0.1,5.3,2.3,5.4,6.4v0.4
			h-9.1c0.1,2.7,1.3,4.1,3.7,4.3C1.3,152.6,2.5,151.7,3,150z M-4.2,146.8H3c-0.1-2.4-1.3-3.7-3.5-3.8C-2.8,143.3-4,144.5-4.2,146.8z
			"/>
		<path d="M11.5,152.7l0.3,0.9c-0.6,0.2-1.2,0.3-1.8,0.3c-1.7,0.1-2.5-0.8-2.5-2.6v-8.1H6v-1.5h1.6v-3.2l1.7-0.9v4.1h2.2v1.5H9.3
			v8.1c-0.1,1,0.4,1.5,1.3,1.5C11,152.8,11.3,152.7,11.5,152.7z"/>
	</g>
	<rect id="矩形" x="154.3" y="191.8" width="19.9" height="1.3"/>
	<rect x="25.8" y="191.8" width="19.9" height="1.3"/>
</g>
</svg>
