<?xml version="1.0" encoding="utf-8"?>
<!-- Generator: Adobe Illustrator 23.0.0, SVG Export Plug-In . SVG Version: 6.00 Build 0)  -->
<svg version="1.1" id="图层_1" xmlns="http://www.w3.org/2000/svg" xmlns:xlink="http://www.w3.org/1999/xlink" x="0px" y="0px"
	 viewBox="0 0 200 200" style="enable-background:new 0 0 200 200;" xml:space="preserve">
<style type="text/css">
	.st0{clip-path:url(#SVGID_2_);fill:#999999;}
</style>
<g>
	<defs>
		<rect id="SVGID_1_" width="200" height="200"/>
	</defs>
	<clipPath id="SVGID_2_">
		<use xlink:href="#SVGID_1_"  style="overflow:visible;"/>
	</clipPath>
	<path class="st0" d="M162.4,77.4h-6V66.1c0-7.6-1.5-15-4.5-21.9c-2.8-6.7-6.9-12.7-12.1-17.9c-5.2-5.2-11.2-9.3-17.9-12.1
		c-6.9-3-14.3-4.5-21.9-4.5s-15,1.5-21.9,4.5c-6.7,2.8-12.7,6.9-17.9,12.1S50.9,37.5,48,44.2c-3,6.9-4.5,14.3-4.5,21.9v11.3h-6
		C28.4,77.4,21,84.9,21,94v79.7c0,9.1,7.4,16.6,16.6,16.6h124.8c9.1,0,16.6-7.4,16.6-16.6V94C179,84.9,171.6,77.4,162.4,77.4z
		 M54.2,66.1c0-12.2,4.8-23.7,13.5-32.4S87.8,20.3,100,20.3s23.7,4.8,32.4,13.5c8.7,8.7,13.5,20.2,13.5,32.4v11.3H54.2V66.1z
		 M168.4,173.7c0,3.3-2.7,6-6,6H37.6c-3.3,0-6-2.7-6-6V94c0-3.3,2.7-6,6-6h124.8c3.3,0,6,2.7,6,6V173.7z"/>
	<path class="st0" d="M100,118.8c-3.2,0-5.9,2.6-5.9,5.9v25.8c0,3.2,2.6,5.9,5.9,5.9s5.9-2.6,5.9-5.9v-25.8
		C105.9,121.4,103.2,118.8,100,118.8z"/>
</g>
</svg>
