<?xml version="1.0" encoding="utf-8"?>
<!-- Generator: Adobe Illustrator 23.0.0, SVG Export Plug-In . SVG Version: 6.00 Build 0)  -->
<svg version="1.1" id="图层_1" xmlns="http://www.w3.org/2000/svg" xmlns:xlink="http://www.w3.org/1999/xlink" x="0px" y="0px"
	 viewBox="0 0 42 80" style="enable-background:new 0 0 42 80;" xml:space="preserve">
<style type="text/css">
	.st0{clip-path:url(#SVGID_2_);}
	.st1{opacity:0.2;fill:#617CF0;enable-background:new    ;}
	.st2{fill:#333333;}
</style>
<g>
	<defs>
		<rect id="SVGID_1_" width="42" height="80"/>
	</defs>
	<clipPath id="SVGID_2_">
		<use xlink:href="#SVGID_1_"  style="overflow:visible;"/>
	</clipPath>
	<g class="st0">
		<path class="st1" d="M31.6,73.6H10.4c-2.8,0-5-2.3-5-5V11.4c0-2.8,2.3-5,5-5h21.2c2.8,0,5,2.3,5,5v57.1
			C36.6,71.3,34.4,73.6,31.6,73.6z"/>
		<path class="st2" d="M26,74H16c-0.6,0-1-0.4-1-1l0,0c0-0.6,0.4-1,1-1h10c0.6,0,1,0.4,1,1l0,0C27,73.6,26.6,74,26,74z"/>
		<path class="st2" d="M36,2c2.2,0,4,1.8,4,4v68c0,2.2-1.8,4-4,4H6c-2.2,0-4-1.8-4-4V6c0-2.2,1.8-4,4-4H36 M36,0H6C2.7,0,0,2.7,0,6
			v68c0,3.3,2.7,6,6,6h30c3.3,0,6-2.7,6-6V6C42,2.7,39.3,0,36,0L36,0z"/>
	</g>
</g>
</svg>
