<?xml version="1.0" encoding="utf-8"?>
<!-- Generator: Adobe Illustrator 23.0.0, SVG Export Plug-In . SVG Version: 6.00 Build 0)  -->
<svg version="1.1" id="图层_1" xmlns="http://www.w3.org/2000/svg" xmlns:xlink="http://www.w3.org/1999/xlink" x="0px" y="0px"
	 viewBox="0 0 200 200" style="enable-background:new 0 0 200 200;" xml:space="preserve">
<style type="text/css">
	.st0{clip-path:url(#SVGID_2_);}
	.st1{fill:#333333;}
</style>
<g>
	<defs>
		<rect id="SVGID_1_" width="200" height="200"/>
	</defs>
	<clipPath id="SVGID_2_">
		<use xlink:href="#SVGID_1_"  style="overflow:visible;"/>
	</clipPath>
	<g class="st0">
		<path class="st1" d="M182.1,12H17.9c-3.3,0-5.9,2.7-5.9,5.9v164.1c0,3.3,2.7,5.9,5.9,5.9h164.1c3.3,0,5.9-2.7,5.9-5.9V17.9
			C188,14.7,185.3,12,182.1,12z M180.7,180.7H19.3V19.3h161.4V180.7z"/>
		<path class="st1" d="M108.1,145.8c2,0,3.7-1.6,3.7-3.6l0.3-25.2l40,40.9c1.4,1.5,3.7,1.5,5.2,0.1c1.5-1.4,1.5-3.7,0.1-5.2
			l-40.2-41.1l25.7,0.3c2,0,3.7-1.6,3.7-3.6s-1.6-3.7-3.6-3.7l-38-0.5l-0.5,38C104.5,144.1,106.1,145.8,108.1,145.8z"/>
		<path class="st1" d="M81.6,86.4l-25.7-0.1c-2,0-3.7,1.6-3.7,3.6c0,2,1.6,3.7,3.6,3.7l38,0.1l0.1-37.9c0-2-1.6-3.7-3.6-3.7
			c-2,0-3.7,1.6-3.7,3.6l-0.1,25.3l-40.1-40c-1.4-1.4-3.7-1.4-5.1,0c-1.4,1.4-1.4,3.7,0,5.2L81.6,86.4z"/>
	</g>
</g>
</svg>
