<?xml version="1.0" encoding="utf-8"?>
<!-- Generator: Adobe Illustrator 23.0.0, SVG Export Plug-In . SVG Version: 6.00 Build 0)  -->
<svg version="1.1" id="图层_1" xmlns="http://www.w3.org/2000/svg" xmlns:xlink="http://www.w3.org/1999/xlink" x="0px" y="0px"
	 viewBox="0 0 152 46" style="enable-background:new 0 0 152 46;" xml:space="preserve">
<style type="text/css">
	.st0{clip-path:url(#SVGID_2_);}
	.st1{opacity:0.2;fill:#999999;enable-background:new    ;}
	.st2{fill:#999999;}
</style>
<g>
	<defs>
		<rect id="SVGID_1_" width="152" height="46"/>
	</defs>
	<clipPath id="SVGID_2_">
		<use xlink:href="#SVGID_1_"  style="overflow:visible;"/>
	</clipPath>
	<g class="st0">
		<path class="st1" d="M139.8,40H12.2c-1.9,0-3.4-1.5-3.4-3.4V9.4c0-1.9,1.5-3.4,3.4-3.4h127.7c1.9,0,3.4,1.5,3.4,3.4v27.3
			C143.2,38.5,141.7,40,139.8,40z"/>
		<path class="st2" d="M148,2c1.1,0,2,0.9,2,2v38c0,1.1-0.9,2-2,2H4c-1.1,0-2-0.9-2-2V4c0-1.1,0.9-2,2-2H148 M148,0H4
			C1.8,0,0,1.8,0,4v38c0,2.2,1.8,4,4,4h144c2.2,0,4-1.8,4-4V4C152,1.8,150.2,0,148,0L148,0z"/>
		<circle class="st2" cx="24" cy="23" r="4"/>
		<g>
			<g>
				<rect x="66" y="13" class="st2" width="18" height="8"/>
				<rect x="42" y="13" class="st2" width="18" height="8"/>
				<rect x="90" y="13" class="st2" width="18" height="8"/>
				<rect x="114" y="13" class="st2" width="18" height="8"/>
			</g>
			<g>
				<rect x="66" y="25" class="st2" width="18" height="8"/>
				<rect x="42" y="25" class="st2" width="18" height="8"/>
				<rect x="90" y="25" class="st2" width="18" height="8"/>
				<rect x="114" y="25" class="st2" width="18" height="8"/>
			</g>
		</g>
	</g>
</g>
</svg>
